<?xml version="1.0" standalone="no"?>
<!DOCTYPE svg PUBLIC "-//W3C//DTD SVG 20010904//EN"
 "http://www.w3.org/TR/2001/REC-SVG-20010904/DTD/svg10.dtd">
<svg version="1.0" xmlns="http://www.w3.org/2000/svg"
 width="700.000000pt" height="700.000000pt" viewBox="0 0 700.000000 700.000000"
 preserveAspectRatio="xMidYMid meet">
<metadata>
Created by potrace 1.14, written by Peter Selinger 2001-2017
</metadata>
<g transform="translate(0.000000,700.000000) scale(0.100000,-0.100000)"
fill="#000000" stroke="none">
<path d="M3465 6203 c-3 -10 -5 -65 -4 -123 2 -100 1 -203 -4 -500 -2 -129 -1
-135 18 -134 149 8 185 21 212 73 10 20 23 39 28 43 16 12 68 8 95 -7 35 -20
73 -18 101 4 13 10 28 19 32 19 4 0 20 4 35 10 30 11 139 42 162 46 61 11 99
21 127 33 18 7 50 13 72 13 31 0 46 7 70 31 17 17 31 35 31 40 0 6 11 2 24 -9
19 -14 36 -18 73 -15 125 9 416 13 426 5 7 -5 37 -8 67 -7 30 1 64 -3 75 -9
11 -5 30 -11 42 -12 20 -2 21 0 10 17 -7 11 -23 23 -37 26 -14 3 -40 15 -57
25 -18 10 -49 27 -68 38 -19 11 -35 16 -35 12 0 -4 -4 -2 -8 4 -11 18 -86 53
-138 64 -27 6 -62 17 -79 24 -49 22 -144 39 -240 42 -100 4 -235 17 -335 33
-98 16 -220 22 -220 11 0 -17 -21 -11 -51 14 -17 14 -49 28 -77 32 -50 7 -222
83 -248 109 -21 21 -80 65 -86 65 -3 0 -9 -8 -13 -17z"/>
<path d="M3435 4943 c-27 -14 -79 -52 -114 -84 -48 -44 -71 -59 -93 -59 -32 0
-71 -24 -126 -77 -18 -18 -42 -33 -52 -33 -11 0 -23 -6 -27 -14 -4 -7 -32 -25
-61 -40 -30 -15 -58 -37 -64 -51 -7 -15 -20 -25 -32 -25 -42 0 -233 -108 -286
-162 -21 -21 -46 -38 -54 -38 -9 0 -49 -17 -88 -37 -39 -21 -91 -48 -115 -61
-24 -12 -49 -33 -55 -47 -10 -23 -34 -38 -54 -34 -27 5 -49 -4 -76 -32 -17
-17 -40 -33 -52 -35 -33 -6 -87 -35 -92 -48 -3 -7 -28 -23 -57 -36 -29 -12
-59 -26 -67 -31 -8 -5 -22 -12 -30 -15 -49 -20 -148 -69 -162 -82 -10 -8 -18
-11 -18 -7 0 4 -8 1 -17 -7 -10 -8 -45 -28 -78 -45 -33 -16 -91 -46 -130 -65
-38 -20 -108 -55 -155 -77 -47 -23 -94 -47 -104 -53 -82 -53 -127 -78 -142
-78 -24 0 -374 -164 -504 -235 -37 -21 -213 -85 -231 -85 -31 0 -59 -33 -63
-75 -11 -103 -18 -163 -22 -195 -3 -19 -7 -75 -10 -125 -2 -49 -9 -108 -15
-130 -5 -22 -8 -56 -6 -75 3 -19 0 -46 -6 -60 -6 -14 -12 -56 -14 -95 -3 -72
-14 -206 -33 -400 -6 -60 -13 -145 -15 -188 -2 -44 -9 -84 -14 -91 -6 -7 -11
-46 -10 -87 0 -41 -2 -90 -5 -109 -3 -19 -8 -66 -11 -105 -3 -38 -12 -92 -21
-118 -18 -55 -21 -106 -6 -133 18 -36 23 -91 9 -97 -14 -5 -23 -47 -34 -160
-3 -31 -9 -60 -14 -63 -14 -8 -11 -90 4 -101 14 -11 404 -10 497 2 36 4 99 9
140 11 41 2 107 8 145 14 39 5 90 12 115 15 25 4 52 9 60 12 8 3 22 7 30 8 8
1 38 9 65 19 28 9 59 18 70 19 22 4 42 11 95 33 19 8 48 17 64 20 16 3 34 8
39 11 6 3 20 7 31 9 36 5 119 25 183 45 18 6 60 9 94 8 33 -1 64 2 67 7 15 20
253 3 302 -21 14 -7 43 -16 65 -20 53 -11 47 -9 149 -39 106 -31 175 -54 190
-64 14 -8 32 -13 79 -19 20 -3 40 -9 43 -14 3 -5 20 -9 39 -9 19 0 36 -4 39
-9 3 -5 23 -11 43 -14 68 -10 108 -19 118 -27 6 -4 33 -7 60 -5 28 1 55 -2 62
-7 10 -8 47 -12 215 -21 25 -2 53 -9 61 -16 23 -18 476 -18 488 1 5 8 9 9 9 2
0 -16 50 -24 56 -9 3 6 23 12 45 13 22 1 49 7 59 12 11 6 30 9 42 7 20 -3 106
3 223 17 17 2 44 8 60 13 17 6 45 8 64 6 18 -3 45 0 60 6 14 6 44 13 66 16
126 14 151 18 163 28 7 5 15 7 19 4 3 -4 15 -1 27 5 11 7 36 11 54 9 18 -1 38
2 45 7 7 6 26 12 42 15 17 2 46 11 65 19 19 8 53 15 75 15 22 1 56 8 75 16 19
8 39 13 44 9 5 -3 125 -6 265 -7 259 -2 325 -8 370 -31 15 -8 31 -10 40 -4 10
5 29 3 49 -5 17 -8 32 -12 32 -9 0 3 10 -1 22 -7 12 -6 35 -13 52 -14 17 -1
43 -7 57 -13 19 -8 30 -7 39 1 10 9 11 9 6 0 -4 -8 6 -14 31 -18 21 -3 54 -10
73 -15 19 -5 63 -12 97 -15 35 -3 81 -8 103 -10 221 -26 258 -28 291 -15 20 9
33 10 37 3 4 -5 21 -10 38 -10 16 1 36 -3 43 -7 7 -4 29 -5 49 -1 86 17 220
22 299 12 l52 -7 -3 93 c-3 81 -14 161 -30 207 -2 8 -7 65 -10 126 -3 62 -11
134 -17 160 -7 27 -13 92 -14 144 -1 52 -5 111 -9 130 -4 19 -8 63 -10 96 -2
34 -7 68 -11 75 -5 7 -8 51 -7 97 1 47 -2 90 -7 96 -5 6 -12 56 -15 111 -3 55
-8 140 -11 188 -3 48 -9 96 -14 106 -6 10 -13 62 -16 117 -3 54 -10 103 -16
108 -11 12 -12 50 -2 60 11 11 13 39 3 52 -6 6 -10 40 -11 75 0 35 -5 80 -10
99 -5 20 -10 71 -13 115 -4 79 -9 116 -21 135 -3 5 -49 23 -103 40 -53 17
-102 36 -108 41 -6 5 -14 6 -17 2 -4 -3 -12 -1 -19 5 -7 6 -49 24 -93 42 -44
17 -98 40 -120 50 -64 29 -169 71 -186 73 -8 2 -33 13 -54 26 -22 13 -62 32
-88 42 -27 11 -127 58 -222 104 -95 47 -177 85 -180 85 -12 0 -187 88 -240
120 -53 32 -152 80 -166 80 -4 0 -35 16 -68 35 -32 19 -64 35 -69 35 -5 0 -12
6 -15 14 -3 7 -26 17 -52 20 -36 6 -48 13 -55 31 -6 15 -21 27 -37 31 -15 4
-46 21 -68 39 -22 17 -69 46 -105 65 -36 18 -102 58 -148 87 -46 29 -120 72
-165 95 -45 22 -92 51 -104 64 -12 13 -31 24 -42 24 -11 0 -28 11 -36 24 -9
14 -46 42 -83 64 -37 22 -179 117 -316 211 -137 94 -255 171 -264 171 -8 0
-23 6 -31 14 -14 12 -23 11 -66 -11z m-1245 -1423 c0 -5 -5 -10 -11 -10 -5 0
-7 5 -4 10 3 6 8 10 11 10 2 0 4 -4 4 -10z"/>
</g>
</svg>
