<svg width="297" height="303" viewBox="0 0 297 303" fill="none" xmlns="http://www.w3.org/2000/svg">
<g clip-path="url(#clip0_110_44516)">
<path d="M7.55466 264.06C7.6042 263.464 8.47113 262.942 8.52067 262.321C8.57021 261.7 7.20789 261.005 7.25743 260.409C7.30697 259.813 7.95097 259.267 8.00051 258.646C8.05005 258.025 7.82713 257.404 7.90143 256.808C7.97574 256.212 9.04083 255.74 9.11513 255.144C9.18944 254.548 9.3876 254.002 9.51144 253.406C9.63529 252.81 8.91698 252.04 9.0656 251.469C9.21421 250.897 9.18944 250.227 9.3876 249.656C9.58575 249.085 10.205 248.662 10.4527 248.116C10.7004 247.57 10.527 246.8 10.8242 246.253C11.1215 245.707 11.9388 245.508 12.2856 245.012C12.6324 244.515 12.4342 243.546 12.8305 243.099C13.2269 242.652 14.391 242.926 14.8369 242.528C15.2827 242.131 15.9019 242.032 16.3726 241.684C16.8432 241.336 17.2147 240.889 17.7349 240.591C18.255 240.293 18.4532 239.399 18.9981 239.151C19.543 238.902 20.0384 238.431 20.6081 238.232C21.1778 238.033 21.8218 237.934 22.3915 237.81C22.9612 237.686 23.7043 238.356 24.2988 238.282C24.8932 238.207 25.4382 238.083 26.0326 238.133C26.6271 238.182 27.1472 238.604 27.7169 238.704C28.2866 238.803 29.005 238.257 29.5994 238.356C30.1939 238.455 30.7388 238.058 31.3333 238.033C32.1754 237.984 32.7699 239.176 33.1167 239.151C33.8102 239.101 33.6864 238.182 34.3304 237.561C34.6028 237.288 35.1973 237.139 35.7918 236.667C36.2624 236.295 36.9312 236.22 37.4513 235.897C37.9715 235.575 38.5907 235.575 39.1604 235.301C39.7301 235.028 39.8787 233.936 40.4732 233.712C41.0676 233.489 41.563 233.091 42.1575 232.917C42.752 232.743 43.6189 233.687 44.2134 233.538C44.8078 233.389 45.1298 231.924 45.7243 231.8C46.3188 231.676 47.0123 232.023 47.6315 231.924C48.2508 231.825 48.9195 232.272 49.514 232.222C50.1085 232.172 50.6534 231.253 51.2726 231.204C51.8919 231.154 52.5606 232.023 53.1799 231.998C53.7991 231.974 54.3936 231.328 55.0128 231.328C55.632 231.328 56.2513 231.849 56.8705 231.849C57.4897 231.849 58.109 231.005 58.7034 231.005C59.2979 231.005 59.9171 232.048 60.5364 232.048C61.1556 232.048 61.7996 231.576 62.3941 231.601C63.0133 231.601 63.6326 231.7 64.227 231.725C64.7967 231.725 65.416 231.179 66.0104 231.204C66.6049 231.229 67.125 232.172 67.6947 232.222C68.2644 232.272 68.8341 232.694 69.4038 232.719C69.9735 232.743 70.568 232.719 71.1377 232.768C71.7074 232.818 72.3514 232.147 72.9211 232.172C73.4908 232.197 74.0852 232.296 74.6549 232.346C75.2246 232.396 75.7696 233.141 76.3392 233.166C76.9089 233.191 77.5529 232.247 78.1474 232.296C78.7419 232.346 79.3116 232.396 79.8813 232.421C80.451 232.445 81.0207 233.091 81.5904 233.116C82.1601 233.141 82.7793 232.719 83.349 232.743C83.9435 232.743 84.5875 232.321 85.2315 232.346C85.8259 232.371 86.4204 232.694 87.0644 232.719C87.7084 232.743 88.2781 232.421 88.8973 232.421C89.5166 232.421 90.1606 233.811 90.755 233.762C91.3495 233.712 92.043 233.538 92.6375 233.464C93.232 233.389 93.8264 232.843 94.4209 232.694C95.0154 232.545 95.6841 232.396 96.2291 232.123C96.774 231.849 96.8731 230.955 97.3189 230.533C97.7895 230.111 98.384 229.888 98.8051 229.416C99.2262 228.944 99.5482 228.422 99.9197 227.926C100.291 227.429 101.133 227.23 101.455 226.709C101.777 226.187 102.099 225.616 102.397 225.07C102.694 224.523 102.397 223.654 102.694 223.108C102.991 222.561 103.041 221.866 103.338 221.32C103.635 220.773 104.031 220.277 104.353 219.73C104.675 219.184 104.799 218.513 105.146 217.992C105.468 217.495 106.236 217.321 106.583 216.849C106.929 216.378 107.648 216.229 108.019 215.757C108.391 215.285 107.92 214.167 108.317 213.72C108.713 213.273 109.877 213.571 110.273 213.124C110.67 212.677 111.066 212.28 111.462 211.858C111.859 211.436 111.735 210.492 112.131 210.094C112.527 209.697 113.394 209.697 113.815 209.3C114.236 208.902 114.311 208.157 114.732 207.735C115.153 207.313 116.045 207.363 116.416 206.941C116.812 206.493 117.134 206.071 117.605 205.724C118.076 205.376 118.299 204.358 118.918 204.283C119.141 204.283 119.339 204.556 119.537 204.581C120.008 204.134 120.949 204.209 121.42 203.787C121.89 203.364 121.667 202.147 122.138 201.7C122.608 201.253 123.327 201.055 123.797 200.633C124.268 200.21 124.838 199.838 125.308 199.391C125.779 198.944 126.15 198.397 126.621 197.95C126.423 198.124 126.126 198.844 126.15 199.714C126.15 200.21 126.274 200.806 126.324 201.452C126.373 201.998 127.29 202.52 127.339 203.116C127.389 203.687 126.572 204.333 126.621 204.929C126.671 205.525 126.572 206.096 126.621 206.692C126.671 207.288 127.067 207.859 127.067 208.431C127.067 209.051 126.398 209.896 126.373 210.442C126.819 210.84 128.107 210.765 128.553 211.162C128.999 211.56 128.826 212.727 129.271 213.124C129.717 213.522 130.262 213.869 130.733 214.242C131.203 214.614 132.145 214.416 132.615 214.788C133.086 215.161 133.73 215.31 134.225 215.657C134.745 215.98 134.944 216.825 135.489 217.123C136.033 217.421 136.653 217.52 137.198 217.793C137.743 218.066 138.387 218.141 138.931 218.389C139.476 218.638 140.368 218.364 140.888 218.687C141.408 219.01 141.879 219.556 142.325 219.954C142.771 220.351 142.647 221.344 143.018 221.841C143.365 222.313 144.034 222.586 144.306 223.157C144.579 223.704 144.034 224.449 144.108 225.045C144.183 225.641 145 226.162 144.95 226.783C144.901 227.404 144.034 227.801 143.861 228.397C143.687 228.993 144.604 230.012 144.331 230.533C144.059 231.08 143.167 231.328 142.845 231.825C142.523 232.321 141.854 232.594 141.483 233.066C141.111 233.538 140.542 233.811 140.12 234.283C139.699 234.755 139.848 236.071 139.452 236.493C138.907 236.295 138.139 235.873 137.594 235.649C137.049 235.426 136.628 234.904 136.058 234.705C135.489 234.507 134.894 234.457 134.349 234.258C133.804 234.06 133.433 233.364 132.888 233.166C132.343 232.967 131.773 232.768 131.228 232.57C130.683 232.371 130.163 232.073 129.618 231.874C129.222 231.725 128.256 232.421 127.587 232.098C127.092 231.874 126.844 230.98 126.274 230.707C125.754 230.459 124.937 230.782 124.392 230.533C123.847 230.285 123.698 229.018 123.178 228.82C122.584 228.596 121.766 228.944 121.246 228.82C120.528 228.646 119.933 228.596 119.512 228.72C118.868 228.919 118.15 229.068 117.754 229.54C117.357 230.012 116.936 230.608 116.713 231.229C116.515 231.8 116.49 232.52 116.391 233.141C116.292 233.762 116.54 234.457 116.515 235.053C116.49 235.748 116.218 236.394 116.218 236.916C116.218 237.512 115.896 238.133 115.921 238.729C115.946 239.325 116.862 239.871 116.912 240.467C116.961 241.063 116.862 241.659 116.912 242.255C116.961 242.851 117.159 243.422 117.258 244.018C117.357 244.614 117.58 245.186 117.679 245.757C117.778 246.328 117.456 246.998 117.58 247.594C117.704 248.191 118.026 248.737 118.125 249.308C118.224 249.879 118.2 250.525 118.323 251.096C118.447 251.667 118.596 252.263 118.695 252.859C118.794 253.455 118.695 254.076 118.794 254.672C118.893 255.268 119.166 255.815 119.265 256.411C119.364 257.007 119.289 257.603 119.388 258.199C119.463 258.795 120.28 259.267 120.354 259.838C120.429 260.409 120.082 261.08 120.156 261.651C120.231 262.222 119.909 262.868 120.008 263.464C120.107 264.06 120.85 264.532 120.924 265.128C120.998 265.724 121.221 266.27 121.296 266.866C121.37 267.462 120.776 268.133 120.85 268.729C120.924 269.325 121.692 269.796 121.791 270.392C121.89 270.989 121.395 271.634 121.494 272.23C121.593 272.826 122.163 273.323 122.237 273.919C122.311 274.515 122.039 275.136 122.113 275.732C122.187 276.328 122.262 276.899 122.336 277.495C122.41 278.091 123.054 278.588 123.129 279.159C123.203 279.73 122.856 280.401 122.93 280.972C123.005 281.543 123.5 282.09 123.599 282.661C123.698 283.232 122.584 284.002 122.658 284.598C122.732 285.194 123.723 285.641 123.797 286.212C123.872 286.783 123.574 287.429 123.674 288.025C123.773 288.621 123.574 289.242 123.674 289.813C123.773 290.384 123.847 290.98 123.921 291.576C123.996 292.172 123.996 292.768 124.07 293.34C124.144 293.911 125.234 294.358 125.333 294.954C125.432 295.55 124.689 296.245 124.788 296.816C124.887 297.388 124.739 297.487 124.813 298.083C124.218 298.157 124.243 298.927 123.649 299.027C123.054 299.126 122.485 299.349 121.89 299.424C121.296 299.498 120.751 299.921 120.156 299.995C119.562 300.07 118.868 299.399 118.274 299.474C117.679 299.548 117.085 299.647 116.49 299.722C115.896 299.796 115.351 300.318 114.781 300.417C114.212 300.517 113.518 300.268 112.924 300.343C112.998 299.772 113.518 299.2 113.568 298.604C113.617 298.008 112.75 297.363 112.775 296.791C112.8 296.22 112.8 295.624 112.825 295.053C112.849 294.482 113.741 293.911 113.741 293.34C113.741 292.768 113.691 292.172 113.716 291.576C113.741 290.98 112.924 290.409 112.924 289.838C112.924 289.267 113.518 288.646 113.493 288.075C113.469 287.503 113.246 286.907 113.221 286.336C113.196 285.765 112.874 285.194 112.825 284.623C112.775 284.051 112.924 283.455 112.849 282.859C112.775 282.263 113.27 281.642 113.196 281.046C113.122 280.45 112.998 279.879 112.924 279.308C112.849 278.737 112.701 278.141 112.602 277.57C112.503 276.998 112.8 276.328 112.701 275.757C112.602 275.186 111.611 274.788 111.487 274.192C111.363 273.596 110.967 273.124 110.843 272.553C110.719 271.982 110.595 271.411 110.447 270.864C110.298 270.318 110.249 269.722 110.1 269.151C109.951 268.58 110.645 267.785 110.471 267.214C110.298 266.642 109.183 266.394 108.985 265.823C108.787 265.252 109.109 264.556 108.911 264.01C108.713 263.464 108.069 263.066 107.846 262.52C107.623 261.974 107.227 261.527 107.004 260.98C106.781 260.434 106.583 259.912 106.36 259.366C106.137 258.82 106.558 258.671 106.335 258.149C106.186 258.72 106.508 258.77 106.36 259.341C106.211 259.912 105.468 260.335 105.344 260.906C105.22 261.477 105.22 262.073 105.097 262.669C104.973 263.265 104.477 263.762 104.378 264.333C104.279 264.904 104.18 265.5 104.081 266.071C103.982 266.642 104.824 267.388 104.75 267.959C104.675 268.53 104.304 269.076 104.23 269.647C104.155 270.219 104.031 270.815 103.982 271.386C103.932 271.957 104.279 272.603 104.23 273.174C104.18 273.745 104.031 274.316 104.007 274.912C103.982 275.508 103.437 276.055 103.387 276.626C103.338 277.197 103.239 277.793 103.189 278.389C103.14 278.985 102.545 279.556 102.545 280.128C102.545 280.699 102.397 281.32 102.397 281.891C102.397 282.462 103.214 283.083 103.214 283.654C103.214 284.225 102.496 284.846 102.496 285.442C102.496 286.038 102.694 286.634 102.719 287.205C102.743 287.777 103.313 288.348 103.338 288.944C103.363 289.54 103.164 290.136 103.189 290.732C103.214 291.328 104.131 291.825 104.18 292.421C104.23 293.017 103.288 293.687 103.363 294.258C103.437 294.83 103.759 295.401 103.833 295.972C103.908 296.543 103.709 297.189 103.784 297.76C103.858 298.331 104.502 298.853 104.576 299.424C104.651 299.995 104.576 300.666 104.7 301.237C104.106 301.311 103.561 302.081 102.966 302.156C102.372 302.23 101.703 301.734 101.109 301.808C100.514 301.883 99.8949 301.709 99.3005 301.783C98.706 301.858 98.1611 302.33 97.5666 302.404C96.9722 302.479 96.3529 302.28 95.7585 302.354C95.164 302.429 94.5943 302.603 93.9998 302.677C93.4054 302.752 93.0834 302.578 92.4889 302.652C92.588 302.056 93.0338 301.833 93.1329 301.262C93.232 300.691 93.3806 300.094 93.4797 299.498C93.5788 298.902 92.6127 298.157 92.687 297.561C92.7614 296.965 93.876 296.518 93.9503 295.922C94.0246 295.326 93.3558 294.656 93.4301 294.06C93.5044 293.464 93.232 292.843 93.2815 292.247C93.331 291.651 93.7026 291.08 93.7274 290.484C93.7521 289.888 93.232 289.267 93.2567 288.671C93.2815 288.075 93.7274 287.503 93.7521 286.907C93.7769 286.311 94.1484 285.715 94.1484 285.119C94.1484 284.523 93.4301 283.927 93.4301 283.331C93.4301 282.735 94.1732 282.139 94.1484 281.543C94.1237 280.947 93.331 280.376 93.3063 279.78C93.2815 279.184 93.6531 278.588 93.6035 277.992C93.554 277.396 93.8264 276.775 93.7769 276.179C93.7274 275.583 93.7769 274.987 93.7274 274.391C93.6778 273.795 93.5292 273.199 93.4549 272.628C93.3806 272.056 93.2567 271.436 93.1824 270.864C93.1081 270.293 93.3558 269.623 93.2567 269.051C93.1577 268.48 92.4394 267.959 92.3403 267.388C92.2412 266.816 92.9595 266.071 92.8604 265.475C92.7614 264.879 91.944 264.432 91.8449 263.836C91.7458 263.24 91.4981 262.992 91.3743 262.396C90.7798 262.396 90.4826 262.694 89.8881 262.719C89.2936 262.743 88.6744 261.402 88.0799 261.402C87.4855 261.402 86.9158 261.899 86.3213 261.924C85.7268 261.949 85.1324 261.551 84.5379 261.551C83.9435 261.551 83.349 261.551 82.7793 261.551C82.2096 261.551 81.6151 262.023 81.0207 262.023C80.4262 262.023 79.8565 262.272 79.262 262.272C78.6676 262.272 78.0731 261.974 77.4786 261.974C76.8842 261.974 76.2897 261.974 75.72 261.974C75.1503 261.974 74.5311 261.75 73.9366 261.75C73.3422 261.75 72.7725 262.818 72.178 262.843C71.5835 262.868 70.9891 262.843 70.4194 262.843C69.8497 262.843 69.2304 261.924 68.636 261.949C68.0415 261.974 67.4718 262.57 66.8773 262.57C66.2829 262.57 65.6884 262.57 65.1187 262.57C64.549 262.57 63.9298 262.495 63.3353 262.52C62.7409 262.545 62.1712 262.743 61.5767 262.743C60.9822 262.743 60.6602 262.843 60.0658 262.843C60.1401 263.439 59.9915 263.811 60.0658 264.432C60.1401 265.053 60.685 265.599 60.7593 266.195C60.8336 266.791 60.3382 267.462 60.4125 268.058C60.4868 268.654 60.041 269.325 60.1153 269.921C60.1896 270.517 60.9327 271.063 61.007 271.659C61.0813 272.255 61.329 272.851 61.4033 273.447C61.4776 274.043 61.4529 274.664 61.5024 275.26C61.5519 275.856 61.329 276.502 61.3785 277.098C61.4281 277.694 61.4776 278.315 61.5272 278.911C61.5767 279.507 61.5024 280.128 61.5519 280.748C61.6015 281.369 62.0969 281.916 62.1464 282.512C62.1959 283.108 61.8492 283.753 61.8987 284.374C61.9482 284.995 62.6665 285.517 62.7409 286.113C62.8152 286.709 62.5675 287.354 62.617 287.95C62.6665 288.546 62.5675 289.167 62.6418 289.788C62.7161 290.409 63.3353 290.931 63.3849 291.551C63.4344 292.172 62.5922 292.868 62.6665 293.464C62.7409 294.06 63.8059 294.556 63.8803 295.177C63.9546 295.798 63.3601 296.444 63.4344 297.065C63.5087 297.686 64.1775 298.207 64.227 298.803C64.2766 299.399 63.8555 300.07 63.905 300.666C63.9546 301.262 63.6821 301.609 63.7316 302.23C63.1372 302.205 62.7904 302.876 62.1959 302.851C61.6015 302.826 61.0318 302.28 60.4373 302.23C59.8428 302.181 59.2484 302.33 58.6539 302.305C58.0594 302.28 57.465 302.305 56.8705 302.28C56.276 302.255 55.6816 302.33 55.0871 302.28C54.4927 302.23 53.8982 302.28 53.3037 302.23C52.7093 302.181 52.0157 301.907 51.4212 301.858C51.446 301.262 51.5699 300.591 51.5946 299.995C51.6194 299.399 51.2231 298.803 51.2479 298.232C51.2726 297.661 51.0249 297.065 51.0497 296.469C51.0745 295.873 52.0157 295.301 52.0157 294.73C52.0157 294.159 52.0653 293.563 52.0405 292.967C52.0157 292.371 51.7432 291.8 51.7185 291.204C51.6937 290.608 52.2386 290.012 52.2139 289.416C52.1891 288.82 51.3717 288.298 51.3469 287.702C51.3222 287.106 50.802 286.585 50.7525 285.989C50.7029 285.392 50.8763 284.821 50.8268 284.225C50.7772 283.629 51.0992 283.033 51.0249 282.437C50.9506 281.841 50.3562 281.344 50.2819 280.773C50.2075 280.202 50.7772 279.532 50.7029 278.96C50.6286 278.389 51.0497 277.719 50.9754 277.147C50.9011 276.576 50.6286 276.005 50.5295 275.434C50.4305 274.863 50.4552 274.242 50.3562 273.671C50.2571 273.099 49.5883 272.628 49.4645 272.056C49.3406 271.485 48.9691 270.964 48.8452 270.392C48.7214 269.821 48.3994 269.3 48.2508 268.729C48.1021 268.157 48.3994 267.487 48.2508 266.916C48.1021 266.344 48.6223 265.599 48.4737 265.028C48.3251 264.457 47.582 264.556 47.4334 264.01C47.3838 264.581 47.7554 264.705 47.7058 265.301C47.6563 265.897 46.9875 266.419 46.938 266.99C46.8885 267.561 46.3683 268.108 46.3188 268.704C46.2692 269.3 46.6903 269.896 46.6408 270.492C46.5912 271.088 47.1857 271.709 47.1361 272.28C47.0866 272.851 46.0463 273.373 45.9967 273.944C45.9472 274.515 46.616 275.161 46.5664 275.757C46.5169 276.353 45.6252 276.849 45.5757 277.445C45.5261 278.041 45.6252 278.613 45.5757 279.209C45.5261 279.805 46.294 280.426 46.2692 281.022C46.2444 281.618 45.7243 282.139 45.6995 282.735C45.6748 283.331 45.3527 283.878 45.328 284.474C45.3032 285.07 44.9564 285.616 44.9069 286.187C44.8574 286.758 45.5261 287.404 45.4766 288C45.4271 288.596 44.7335 289.118 44.7087 289.689C44.684 290.26 45.8977 290.955 45.8481 291.527C45.7986 292.098 44.9564 292.619 44.9069 293.215C44.8574 293.811 44.9564 294.383 44.9069 294.979C44.8574 295.575 45.4518 296.195 45.4023 296.767C45.3527 297.338 45.0555 297.909 45.006 298.505C44.9564 299.101 44.5601 299.623 44.5106 300.219C43.9161 300.119 43.2473 300.467 42.6529 300.368C42.0584 300.268 41.5878 299.449 40.9933 299.349C40.3989 299.25 39.8292 299.027 39.2347 298.902C38.6402 298.778 38.021 298.778 37.4265 298.679C36.8321 298.58 36.089 299.225 35.4945 299.126C34.9001 299.027 34.5038 297.76 33.9093 297.636C33.3148 297.512 32.5965 298.033 32.002 297.909C31.4076 297.785 30.8131 297.686 30.2187 297.586C30.1196 296.99 29.4508 296.493 29.3517 295.922C29.2526 295.351 29.8471 294.631 29.7728 294.035C29.6985 293.439 29.8471 292.818 29.7728 292.222C29.6985 291.626 28.6582 291.154 28.5839 290.558C28.5096 289.962 28.3609 289.366 28.2866 288.77C28.2123 288.174 29.5746 287.429 29.5003 286.833C29.426 286.237 28.2123 285.765 28.1628 285.169C28.1133 284.573 28.4353 283.927 28.3857 283.331C28.3362 282.735 27.8903 282.164 27.8408 281.568C27.7913 280.972 28.8068 280.301 28.7573 279.705C28.7077 279.109 28.3362 278.538 28.3114 277.942C28.2866 277.346 27.3454 276.8 27.2959 276.204C27.2463 275.608 27.5683 274.987 27.5436 274.391C27.5188 273.795 27.9894 273.174 27.9894 272.578C27.9894 271.982 27.0977 271.411 27.0729 270.815C27.0482 270.219 27.9151 269.598 27.8903 269.002C27.8656 268.406 27.5188 267.81 27.5188 267.214C27.5188 266.618 28.0389 266.022 28.0389 265.426C28.0389 264.83 27.6426 264.234 27.6426 263.638C27.6426 263.042 28.3362 262.445 28.3362 261.849C28.3362 261.253 27.9399 260.633 27.9646 260.037C27.9894 259.441 28.0885 258.844 28.1133 258.248C28.138 257.652 28.2619 257.056 28.3114 256.46C28.3609 255.864 28.3114 255.268 28.3609 254.672C28.4105 254.076 28.2371 252.884 28.2866 252.288C27.7665 252.189 27.1968 252.437 26.8005 252.785C26.5528 253.331 26.7509 254.424 26.5032 254.97C26.2556 255.517 26.4289 256.262 26.1812 256.808C25.9335 257.354 25.6115 257.876 25.3639 258.447C25.1162 259.018 24.5465 259.416 24.2988 259.987C24.0511 260.558 23.6795 261.055 23.4566 261.601C23.2337 262.147 23.0108 262.743 22.7878 263.29C22.5649 263.836 22.8621 264.656 22.6392 265.202C22.4163 265.748 21.4008 265.997 21.1531 266.543C20.9054 267.09 21.6237 268.058 21.376 268.629C21.1283 269.2 20.41 269.523 20.1623 270.094C19.9146 270.666 19.9394 271.311 19.6917 271.883C19.444 272.454 18.3789 272.652 18.156 273.199C17.933 273.745 18.3789 274.614 18.156 275.186C17.933 275.757 16.8927 275.98 16.6698 276.527C16.4469 277.073 17.4624 278.191 17.2147 278.737C16.967 279.283 16.323 279.681 16.0753 280.227C15.8276 280.798 15.9267 281.568 15.6295 282.139C15.3323 282.71 13.9204 282.611 13.5736 283.133C13.2269 283.654 13.8956 285.045 13.4498 285.467C13.0039 285.889 12.0132 285.79 11.4435 286.063C10.8738 286.336 10.3536 286.932 9.78391 287.007C9.21421 287.081 8.52067 286.634 7.9262 286.535C7.33174 286.436 6.51435 286.883 5.94465 286.659C5.37496 286.436 5.39973 285.045 4.87957 284.747C4.35941 284.449 3.19525 285.144 2.69986 284.772C2.20448 284.399 1.98155 283.679 1.5357 283.306C1.08985 282.934 0.42108 282.263 0 281.866C0.470618 281.493 1.38709 281.171 1.80817 280.748C2.22924 280.326 2.50171 279.755 2.87325 279.283C3.24479 278.811 3.34387 278.191 3.66587 277.669C3.98787 277.147 4.73095 276.899 5.00342 276.353C5.27588 275.806 5.12726 275.086 5.32542 274.54C5.52357 273.993 6.56389 273.671 6.73727 273.099C6.91066 272.528 5.7465 271.585 5.89511 270.989C6.04373 270.392 6.86112 269.97 6.9602 269.374C7.05928 268.778 7.20789 268.182 7.2822 267.586C7.35651 266.99 7.80236 266.419 7.87667 265.823C7.95097 265.227 7.48035 264.556 7.52989 263.96L7.55466 264.06Z" fill="#333333"/>
</g>
<g clip-path="url(#clip1_110_44516)">
<path d="M295.416 130.933C295.368 131.415 296.016 131.607 295.92 132.113C295.92 132.209 295.968 132.329 295.992 132.426C295.488 132.498 295.896 133.051 295.56 133.244C295.416 133.316 295.56 133.461 295.656 133.557C295.848 133.701 295.824 133.557 295.92 133.461C296.016 133.34 296.184 133.364 296.28 133.461C296.448 133.605 296.184 133.725 296.184 133.749C296.328 134.159 295.848 134.568 296.232 135.025C296.568 135.434 296.232 135.579 295.728 135.506C295.992 135.699 296.16 135.819 296.328 135.916C296.16 136.18 295.92 136.108 295.728 136.108C295.536 136.108 295.464 136.228 295.464 136.445C295.464 136.686 295.608 136.686 295.776 136.71C296.544 136.83 296.568 136.83 296.112 137.552C295.896 137.913 296.136 138.106 296.304 138.347C296.16 138.611 295.992 138.25 295.824 138.491C296.52 138.9 296.4 139.646 296.28 140.248C296.208 140.609 296.208 140.946 296.184 141.307C296.16 141.74 296.424 142.077 296.544 142.462C296.328 142.583 296.28 142.366 296.136 142.366C296.52 143.786 296.256 145.134 295.464 145.712C296.184 146.121 296.184 146.169 295.656 146.915C295.752 147.107 295.896 146.915 296.064 146.987C295.728 147.95 295.44 148.937 295.056 149.875C294.912 150.236 294.984 150.405 295.104 150.766C295.248 151.175 295.488 151.825 294.912 152.234C294.888 152.234 294.744 152.282 294.84 152.282C295.464 152.403 294.984 152.932 295.176 153.197C295.248 153.293 295.272 153.438 295.176 153.486C294.504 153.871 294.768 154.689 294.36 155.195C294 155.652 293.928 156.302 293.52 156.783C293.52 156.783 293.472 156.831 293.472 156.855C293.712 157.866 292.463 158.299 292.535 159.262C292.535 159.431 292.367 159.527 292.223 159.599C291.263 160.129 290.783 161.212 289.871 161.789C289.607 161.958 290.015 162.271 289.727 162.439C289.367 162.656 289.199 163.089 288.695 163.185C287.927 163.33 287.447 164.052 286.895 164.533C286.055 165.255 285.214 165.977 284.23 166.483C283.918 166.651 283.75 166.868 283.558 167.109C282.742 167.999 281.662 168.505 280.582 168.938C279.958 169.178 279.238 169.467 278.614 169.395C278.158 169.347 277.702 169.612 277.293 169.395C276.789 169.154 276.261 169.323 275.781 169.347C274.437 169.467 273.213 169.347 272.061 168.577C271.437 168.168 270.597 168.023 269.925 168.119C268.388 168.336 267.188 167.614 266.084 166.844C265.22 166.242 264.26 165.809 263.444 165.159C262.796 164.654 262.124 164.148 261.451 163.691C261.115 163.474 260.731 163.258 260.395 163.017C259.867 162.656 259.747 162.078 259.339 161.741C258.811 161.308 258.571 160.634 257.947 160.321C256.675 159.695 255.547 158.155 255.715 156.687C255.763 156.109 255.619 155.363 254.971 154.954C254.755 154.809 254.947 153.991 255.139 153.726C255.379 153.389 255.331 152.884 255.139 152.667C254.827 152.306 254.371 151.969 253.867 151.993C253.41 151.993 253.218 152.451 252.93 152.788C252.45 153.341 252.93 154.136 252.306 154.569C252.666 154.761 252.57 155.387 252.762 155.435C253.17 155.532 252.978 155.796 253.074 155.965C253.386 156.639 253.314 157.433 253.555 158.059C253.843 158.805 253.651 159.84 254.563 160.321C254.779 160.442 254.611 160.706 254.875 160.923C255.763 161.645 256.891 162.126 257.491 163.185C258.187 164.389 259.219 165.231 260.467 165.833C260.635 165.929 260.707 166.218 260.995 165.977C261.139 165.857 261.235 166.025 261.259 166.17C261.379 166.651 261.644 166.964 262.172 166.916C262.292 166.916 262.364 166.964 262.46 167.036C263.996 168.456 265.748 169.564 267.716 170.237C268.34 170.454 269.06 170.743 269.733 170.647C270.549 170.526 271.173 170.839 271.797 171.248C272.253 171.537 272.733 171.85 273.261 171.393C273.453 171.224 273.621 171.296 273.765 171.441C274.053 171.778 274.437 171.73 274.821 171.73C276.189 171.73 277.582 171.609 278.95 171.73C279.334 171.754 279.718 171.682 280.078 171.465C280.15 171.417 280.198 171.296 280.27 171.369C280.87 171.898 281.11 171.224 281.422 170.96C281.59 170.815 281.758 170.791 281.926 170.743C282.646 170.55 283.39 170.334 283.99 169.973C284.47 169.684 284.974 169.227 285.383 168.721C285.887 168.095 286.511 167.686 287.303 167.349C287.903 167.109 288.575 166.699 288.839 165.929C288.911 165.713 289.223 165.279 289.703 165.4C289.895 165.448 290.159 165.4 290.399 165.231C289.847 165.977 290.615 166.675 290.303 167.421C290.591 167.445 290.783 167.47 291.143 167.494C290.543 167.782 290.807 168.408 290.399 168.745C289.775 169.251 289.847 169.949 289.847 170.719C289.847 171.513 290.327 172.211 290.135 173.029C289.919 173.872 290.375 174.474 291.071 174.883C291.095 175.292 290.447 175.003 290.543 175.484C290.591 175.797 290.903 175.677 291.047 175.894C290.735 176.182 290.615 176.471 291.047 176.808C291.119 176.856 291.167 177.025 291.143 177.121C291.023 177.699 291.047 178.228 291.503 178.686C291.551 178.734 291.551 178.854 291.527 178.926C291.455 179.359 290.855 179.841 290.951 179.985C291.215 180.394 291.191 180.755 291.119 181.116C290.951 181.814 290.927 181.79 291.599 182.224C291.695 182.537 290.855 182.898 291.671 183.162C291.743 183.162 291.719 183.235 291.671 183.283C291.167 183.716 291.527 184.245 291.503 184.751C291.503 185.16 291.143 185.714 291.959 185.81C292.103 185.81 291.959 186.171 291.863 186.315C291.527 186.7 291.695 186.965 291.863 187.374C291.959 187.663 292.271 188 292.103 188.481C291.911 189.083 292.271 189.709 292.511 190.287C292.775 190.912 292.367 191.514 292.391 192.164C292.439 193.127 292.391 194.114 292.751 195.028C292.895 195.389 292.895 195.822 292.847 196.159C292.655 197.339 292.943 198.47 293.207 199.529C293.4 200.251 293.328 200.781 293.015 201.382C292.943 201.527 292.775 201.791 293.231 201.888C293.568 201.96 293.688 202.321 293.376 202.634C293.135 202.875 293.087 203.115 293.111 203.476C293.159 204.463 293.135 205.474 293.231 206.437C293.328 207.423 293.015 208.458 293.472 209.421C293.544 209.542 293.568 209.686 293.52 209.83C293.183 210.938 293.472 212.069 293.568 213.176C293.664 214.62 293.808 216.064 293.784 217.508C293.784 217.845 293.856 218.158 293.904 218.495C294.024 219.434 294.096 220.396 294.144 221.335C294.168 221.961 294.48 222.539 294.288 223.237C294.12 223.814 294.24 224.608 294.456 225.162C294.816 226.053 294.408 226.895 294.648 227.689C295.008 228.917 294.816 230.168 295.128 231.396C295.296 232.046 295.224 232.888 295.248 233.634C295.248 233.995 295.2 234.308 295.728 234.404C296.136 234.477 296.208 234.862 295.848 235.151C295.32 235.536 295.2 235.969 295.68 236.45C295.992 236.763 295.248 237.437 296.304 237.437C295.344 238.159 295.656 238.881 295.968 239.531C296.064 239.724 296.04 239.892 296.016 240.061C296.016 240.157 295.944 240.349 295.944 240.373C296.76 240.734 296.256 241.192 296.016 241.601C295.92 241.769 295.92 241.914 296.016 242.058C296.448 242.636 296.28 243.334 296.28 243.96C296.28 244.369 296.448 244.706 296.52 245.019C296.712 245.861 296.448 246.752 296.88 247.546C297.168 248.099 296.952 248.749 296.952 249.327C296.976 250.41 296.952 251.493 297.072 252.552C297.144 253.034 296.808 253.443 296.88 253.924C296.928 254.213 296.808 254.526 297 254.815C297.096 254.935 297.144 255.127 297.024 255.296C296.544 255.97 296.712 256.716 296.712 257.462C296.712 258.281 296.232 259.195 295.488 259.412C295.08 259.532 294.624 259.701 294.264 259.701C293.496 259.701 292.847 260.086 292.127 260.134C291.671 260.158 291.263 260.302 291.023 260.736C290.999 260.784 290.951 260.808 290.903 260.856C290.495 261.193 289.871 260.615 289.679 260.928C289.391 261.409 289.055 261.385 288.623 261.409C288.383 261.409 288.119 261.217 287.879 261.506C287.687 261.746 287.543 261.409 287.519 261.265C287.375 260.711 287.087 261.433 286.919 261.193C286.919 261.794 286.271 261.482 286.247 261.458C285.767 261.097 285.238 261.241 284.806 261.385C283.87 261.722 282.862 261.578 281.902 261.843C281.494 261.939 280.99 261.819 280.534 261.915C280.414 261.939 280.27 261.867 280.174 261.987C279.622 262.565 279.022 262.252 278.422 262.107C278.134 262.035 277.822 261.819 277.654 262.276C277.63 262.372 277.51 262.468 277.414 262.493C276.837 262.565 276.285 262.468 275.709 262.661C275.397 262.757 274.989 262.661 274.557 262.733C273.861 262.902 273.117 263.118 272.373 263.094C272.109 263.094 271.941 262.829 271.653 262.854C271.269 262.878 270.909 262.854 270.837 263.335C270.477 263.239 270.909 262.974 270.597 262.854C270.285 263.503 269.613 262.998 269.108 263.239C268.7 263.431 268.196 263.527 267.74 263.624C266.852 263.792 266.636 264.322 267.068 265.14C267.164 265.309 267.164 265.501 267.212 265.742C266.9 265.814 266.468 265.766 266.42 266.271C266.42 266.368 266.324 266.44 266.372 266.56C266.876 267.547 266.876 267.932 266.54 268.798C266.444 269.039 266.468 269.641 266.54 269.689C267.164 270.219 266.636 270.868 266.78 271.422C266.876 271.783 266.756 272.264 267.332 272.337C266.828 273.227 266.828 273.251 267.668 274.07C267.332 274.503 267.188 274.912 267.596 275.441C267.908 275.827 267.812 276.452 267.86 276.934C267.932 277.68 268.268 278.378 268.1 279.172C267.812 280.424 268.412 281.627 268.556 282.83C268.676 283.721 268.916 284.636 268.772 285.574C268.724 285.935 268.772 286.272 268.868 286.633C269.18 287.572 269.108 288.559 269.156 289.522C269.204 290.605 269.204 291.712 269.685 292.723C269.925 293.252 269.541 293.806 269.853 294.359C269.949 294.552 269.901 294.913 270.045 295.202C270.381 295.9 269.853 296.622 270.117 297.32C270.117 297.368 269.997 297.488 269.901 297.536C269.709 297.681 269.469 297.777 269.276 297.922C268.532 298.427 268.532 298.451 268.196 297.56C268.004 297.873 268.172 298.186 268.052 298.547C267.884 297.849 267.452 297.97 266.948 297.994C266.084 298.042 265.316 298.668 264.38 298.403C264.188 298.355 264.14 298.668 264.02 298.668C263.612 298.716 263.3 299.005 262.772 298.788C262.196 298.523 261.499 298.932 260.899 299.173C260.779 299.221 260.659 299.39 260.539 299.318C259.603 298.836 258.979 299.318 258.427 300.064C257.587 299.366 256.723 299.558 255.859 299.943C255.763 299.991 255.619 300.088 255.571 300.064C254.755 299.63 253.987 300.28 253.194 300.112C253.218 300.497 253.651 300.473 253.723 300.738C253.579 300.906 253.41 300.906 253.338 300.81C252.498 299.847 251.682 300.449 250.866 300.858C250.65 300.954 250.506 301.075 250.218 300.978C249.498 300.714 248.754 300.978 248.034 301.123C247.626 301.219 247.794 301.628 247.578 301.821C246.978 301.05 246.666 301.05 245.97 301.797C245.874 301.893 245.73 302.037 245.658 302.037C245.057 301.893 244.457 301.845 243.953 302.302C242.897 301.821 241.913 302.302 240.929 302.591C240.065 302.856 239.177 302.663 238.313 302.88C238.217 302.88 238.097 302.783 238.001 302.783C236.752 302.952 236.512 302.615 236.944 301.411C237.088 300.978 237.136 300.497 237.737 300.449C237.737 300.449 237.785 300.425 237.809 300.401C238.001 300.016 238.097 299.51 238.721 299.582C238.553 298.981 238.985 299.053 239.345 299.077C239.249 298.331 239.681 297.705 240.329 297.512C240.641 297.416 240.785 297.127 240.977 296.863C241.289 296.453 241.409 295.731 242.273 296.044C242.657 296.189 243.017 295.755 243.257 295.467C243.521 295.178 243.953 294.985 244.001 294.504C244.025 294.287 244.241 294.383 244.409 294.432C244.625 294.456 244.625 294.432 244.601 294.119C244.601 294.022 244.601 293.95 244.697 293.926C244.913 293.878 245.201 294.071 245.369 293.782C245.73 294.311 245.994 293.902 246.282 293.734C246.282 293.517 245.97 293.661 245.946 293.348C246.378 293.517 246.762 293.276 246.954 293.06C247.194 292.747 247.386 293.3 247.554 292.987C247.674 292.747 247.602 292.506 247.674 292.265C247.746 292.025 247.914 292.025 248.13 292.025C248.61 292.025 249.066 292.025 249.186 291.375C249.21 291.23 249.426 290.942 249.594 291.375C249.642 291.519 249.81 291.519 249.954 291.423C250.074 291.327 250.242 291.23 250.098 291.038C250.026 290.918 250.002 290.797 249.954 290.581C250.602 291.038 251.202 290.893 251.85 290.653C252.186 290.532 252.45 290.244 252.546 289.859C252.594 289.618 252.834 289.666 252.93 289.714C253.218 289.81 253.458 289.955 253.843 290.003C253.819 289.738 253.41 289.401 253.939 289.305C254.275 289.257 254.539 289.064 254.803 288.896C255.019 289.064 254.947 289.449 255.379 289.377C255.163 288.896 255.379 288.727 255.859 288.703C256.123 288.703 256.291 288.559 256.531 288.366C256.939 287.981 257.515 287.957 257.947 288.583C258.187 288.174 258.163 287.644 258.667 287.548C258.619 287.379 258.907 287.235 258.523 286.994C258.139 286.778 257.539 286.272 257.995 285.55C258.067 285.43 257.899 285.093 257.755 284.9C257.563 284.612 257.539 284.539 257.827 284.347C257.419 283.938 256.891 283.625 257.443 282.879C257.683 282.566 257.227 282.084 257.059 281.796C256.675 281.17 256.819 280.52 256.699 279.87C256.627 279.461 256.699 279.004 256.843 278.546C257.035 277.872 256.891 277.608 256.243 276.525C256.195 276.452 256.219 276.308 256.243 276.212C256.363 275.73 256.363 275.321 255.859 275.056C255.691 274.96 255.859 274.767 255.859 274.623C255.811 274.19 255.907 273.805 255.715 273.323C255.547 272.938 255.259 272.312 255.379 271.927C255.595 271.157 254.899 270.483 255.331 269.737C255.403 269.641 255.283 269.304 255.115 269.4C254.779 269.593 254.659 269.448 254.659 269.184C254.659 268.919 254.923 268.919 255.115 268.847C255.163 268.847 255.187 268.799 255.235 268.75C255.139 268.534 254.995 268.437 254.731 268.437C254.179 268.462 254.083 268.293 254.275 267.764C254.395 267.427 254.539 267.066 254.683 266.729C254.419 266.584 254.203 266.632 254.011 266.777C253.819 266.512 254.059 266.44 254.107 266.319C254.395 265.645 253.915 265.044 253.218 265.14C252.498 265.26 251.826 265.477 251.154 265.742C250.506 265.982 249.834 266.079 249.138 266.151C248.634 266.199 248.298 265.646 247.77 265.886C247.77 265.886 247.65 265.79 247.602 265.718C247.434 265.405 247.338 265.621 246.954 265.453C246.138 265.092 245.946 266.127 245.297 266.031C244.961 265.982 245.345 266.44 245.081 266.536C244.865 266.488 245.009 266.247 244.841 266.103C244.601 266.368 244.313 266.632 243.929 266.319C243.713 266.777 243.257 266.56 242.921 266.705C242.657 266.825 242.441 266.801 242.369 266.608C242.153 266.007 241.769 266.247 241.337 266.368C241.937 266.705 241.289 267.09 241.529 267.475C241.121 267.186 240.809 266.777 240.281 266.993C240.161 267.041 240.089 266.993 240.041 266.873C239.705 265.982 239.081 265.718 238.145 265.694C237.665 265.694 237.136 265.597 236.632 265.645C235.984 265.694 235.696 266.079 235.696 266.753C235.696 267.282 235.456 267.499 234.832 267.354C235.336 268.125 235.36 268.798 234.664 269.376C234.568 269.448 234.544 269.689 234.592 269.833C234.664 270.122 235.024 270.411 234.448 270.58C234.448 270.58 234.424 270.7 234.448 270.724C235.048 271.181 234.616 271.639 234.424 272.072C234.088 272.77 234.208 273.588 233.8 274.262C233.776 274.31 233.8 274.382 233.8 274.431C234.232 275.465 233.872 276.404 233.392 277.319C233.344 277.415 233.344 277.608 233.56 277.608C233.632 277.608 233.872 277.559 233.752 277.68C233.128 278.306 233.992 279.052 233.512 279.678C232.984 280.4 233.416 281.362 232.912 282.157C233.128 282.157 233.296 282.205 233.512 282.229C233.464 282.975 232.768 283.36 232.672 284.034C232.672 284.226 233.104 284.058 233.104 284.443C232.72 284.371 232.336 284.299 231.904 284.202C232.144 284.491 232.456 284.443 232.696 284.636C232.744 284.9 232.336 285.237 232.936 285.502C232.144 285.574 231.568 285.743 230.992 286.104C231.784 286.248 231.352 286.946 231.592 287.331C231.64 287.428 231.52 287.596 231.352 287.62C230.968 287.668 230.656 287.692 231.064 288.174C231.136 288.27 230.68 288.246 230.728 288.535C231.4 289.088 231.496 289.883 230.944 290.653C230.872 290.773 230.728 290.942 230.824 290.99C231.352 291.303 230.896 292.025 231.52 292.265C230.56 292.554 230.416 293.589 231.016 294.937C230.824 295.13 230.656 294.937 230.488 294.889C230.44 294.985 230.488 295.057 230.56 295.105C231.064 295.635 231.112 296.381 231.4 297.007C231.496 297.248 231.592 297.464 231.208 297.681C230.752 297.946 230.728 298.62 230.152 298.908C229.744 299.101 229.335 299.245 228.999 299.053C228.399 298.692 228.039 299.053 227.655 299.366C227.367 299.606 227.055 299.486 226.839 299.366C226.647 299.245 226.431 299.173 226.311 299.293C225.783 299.871 225.183 299.534 224.607 299.486C224.439 299.486 224.151 299.149 224.079 299.606C224.079 299.654 223.887 299.703 223.887 299.679C223.335 298.932 223.143 299.823 222.807 299.919C222.567 299.823 222.711 299.606 222.543 299.414C222.447 299.991 221.895 299.991 221.582 300.304C221.126 300.786 220.55 300.762 220.022 300.689C219.686 300.641 219.302 300.617 218.99 300.28C218.822 300.112 218.03 299.751 217.67 300.401C217.406 300.256 217.694 300.088 217.574 299.919C217.358 299.919 217.166 300.425 216.854 299.991C216.734 299.823 216.494 299.991 216.326 300.04C215.606 300.232 214.886 300.208 214.19 299.895C214.046 299.823 213.95 299.799 213.805 299.847C212.605 300.184 211.357 299.991 210.181 300.256C208.333 300.689 206.437 300.762 204.564 300.81C203.196 300.858 201.804 301.099 200.412 300.954C199.98 300.906 199.212 300.473 198.948 301.411C198.42 300.617 197.579 301.123 196.955 300.81C196.811 300.738 196.475 300.93 196.379 300.617C196.259 300.232 196.715 300.377 196.739 300.328C196.979 299.438 197.891 299.534 198.42 299.101C199.452 298.307 200.652 297.753 201.612 296.863C202.116 296.381 202.812 296.165 203.316 295.707C204.54 294.624 206.101 294.167 207.541 293.493C208.189 293.204 208.717 292.771 209.365 292.506C211.333 291.712 213.253 290.797 215.246 290.051C216.35 289.642 217.502 289.377 218.558 288.848C218.75 288.751 218.942 288.775 219.11 288.848C219.758 289.064 220.334 288.583 220.958 288.583C221.222 288.583 221.174 288.318 221.174 288.126C221.174 287.476 221.39 286.874 221.51 286.248C221.606 285.767 221.847 285.55 222.183 285.382C222.039 285.021 221.558 285.189 221.462 284.828C221.678 284.588 222.423 284.515 221.75 283.938C221.558 283.793 221.726 283.504 221.991 283.432C222.303 283.36 222.207 283.119 222.183 282.975C222.183 282.734 221.991 282.975 221.871 282.951C221.534 282.903 221.414 282.638 221.558 282.421C221.871 281.94 221.486 281.29 221.943 280.857C222.087 280.737 221.943 280.52 221.823 280.424C221.198 279.846 221.702 279.726 222.279 279.605C221.799 279.341 221.919 278.859 221.654 278.57C221.991 278.498 222.207 278.161 222.711 278.113C222.087 277.728 221.943 277.319 221.895 276.693C221.871 276.26 222.039 275.875 221.991 275.514C221.943 275.08 222.447 274.647 221.943 274.238C221.847 274.166 221.943 273.949 221.967 273.949C222.447 273.949 222.111 273.299 222.495 273.251C222.519 273.251 222.543 273.155 222.543 273.107C222.663 272.746 221.823 272.938 222.159 272.385C222.231 272.264 221.774 271.879 221.318 272.096C221.654 271.711 221.702 271.35 221.775 270.892C221.871 270.315 221.702 269.424 222.687 269.135C222.303 268.895 222.279 268.341 221.726 268.413C221.486 268.437 221.462 268.197 221.534 268.052C221.63 267.86 221.702 267.667 221.75 267.451C221.799 267.258 222.063 267.138 221.919 266.897C221.774 266.656 221.438 266.897 221.198 266.608C221.078 266.44 221.054 267.041 220.766 267.234C220.286 266.705 221.27 265.79 220.286 265.429C220.478 265.862 220.214 266.295 220.382 266.753C219.926 266.127 219.422 266.319 218.87 266.56C218.558 266.705 218.51 266.825 218.774 267.138C218.006 266.68 217.238 266.656 216.494 266.488C216.326 266.44 216.206 266.44 216.086 266.295C215.63 265.814 215.462 265.862 215.198 266.536C214.886 266.536 214.718 266.199 214.43 266.127C214.238 266.271 214.502 266.44 214.358 266.632C214.094 266.512 213.926 266.007 213.541 266.271C213.277 266.44 213.253 266.849 212.869 266.969C212.725 266.079 211.717 266.825 211.501 266.151C211.237 266.295 211.381 266.536 211.189 266.608C210.925 266.512 210.853 265.67 210.373 266.392C210.253 266.56 210.109 266.392 209.941 266.319C209.701 266.223 209.485 265.886 209.149 266.175C209.053 266.271 208.837 265.814 208.645 266.223C208.477 266.584 208.741 266.656 208.885 266.801C208.933 266.849 208.981 266.921 209.005 267.017C208.669 266.921 208.261 266.897 208.189 266.368C207.637 267.041 207.037 267.306 206.149 267.378C205.981 267.162 206.485 266.873 206.101 266.656C205.812 266.512 205.644 266.729 205.452 266.897C205.02 267.21 204.468 267.066 203.988 267.258C203.652 267.378 203.796 266.921 203.796 266.68C203.268 266.56 202.764 267.066 202.236 266.656C202.02 266.488 201.996 267.066 201.708 267.066C201.18 266.656 200.628 266.536 199.908 266.584C199.188 266.632 198.444 266.392 197.699 266.295C197.435 266.271 197.195 266.223 196.931 266.223C196.259 266.223 195.611 265.862 194.915 266.007C194.699 265.381 193.955 266.007 193.691 265.501C193.667 265.453 193.475 265.405 193.379 265.453C192.179 265.934 191.219 264.827 190.091 264.972C189.922 264.972 189.73 264.755 189.586 264.635C189.298 264.707 189.466 265.044 189.25 265.164C188.938 263.792 188.698 262.444 188.53 261.072C188.458 260.495 188.602 259.893 188.482 259.315C188.362 258.81 188.482 258.136 188.362 257.751C188.194 257.246 188.53 256.716 188.146 256.259C187.978 256.066 188.314 255.946 188.362 255.777C188.458 255.344 188.506 254.911 188.266 254.526C188.026 254.165 187.954 253.707 188.098 253.419C188.482 252.624 188.434 251.806 188.41 250.988C188.362 249.11 188.41 247.233 188.53 245.356C188.65 243.141 188.842 240.951 188.962 238.761C189.034 237.317 189.274 235.897 189.322 234.453C189.37 232.984 189.49 231.492 189.562 230.024C189.562 229.759 189.898 229.47 189.898 229.422C189.706 228.748 190.379 228.315 190.379 227.786C190.379 226.967 190.595 226.173 190.595 225.379C190.595 223.742 191.075 222.226 191.387 220.685C191.531 219.963 191.387 219.193 191.531 218.447C191.699 217.701 192.251 217.003 191.819 216.16C192.563 215.414 192.107 214.379 192.539 213.513C192.323 213.393 192.107 213.272 191.843 213.104C192.539 212.839 192.731 212.454 192.755 211.708C192.755 210.769 193.139 209.83 192.779 208.868C193.403 208.531 192.683 207.905 193.019 207.616C193.475 207.183 193.091 206.653 193.355 206.244C193.403 206.172 193.451 206.052 193.427 206.003C192.971 205.281 193.547 204.632 193.571 203.934C193.571 203.548 193.571 203.236 193.163 202.947C193.907 202.73 193.979 202.201 193.619 201.767C193.259 201.31 193.427 201.021 193.643 200.636C193.787 200.395 194.147 200.058 193.643 199.794C193.619 199.794 193.595 199.673 193.619 199.649C194.459 198.735 194.075 197.555 194.267 196.52C194.363 196.015 194.627 195.63 194.843 195.221C195.131 194.619 195.899 194.162 195.563 193.199C195.347 192.621 195.323 191.851 195.851 191.249C196.019 191.057 195.947 190.84 195.923 190.624C195.923 190.431 195.803 190.214 196.019 190.094C196.715 189.757 196.067 189.589 195.923 189.348C195.995 189.083 196.307 189.059 196.451 188.867C196.451 188.818 196.499 188.722 196.451 188.722C195.875 188.217 196.379 187.591 196.235 187.013C196.067 186.219 196.931 186.147 197.339 185.882C197.819 185.569 198.252 185.28 198.636 184.847C199.596 183.788 200.7 182.849 201.3 181.453C201.516 180.996 202.044 180.587 202.404 180.154C202.668 179.817 202.932 179.504 203.052 179.047C203.148 178.613 203.7 178.541 203.964 178.18C204.732 177.169 205.5 176.158 205.836 174.907C206.173 173.655 206.677 172.476 206.941 171.176C207.157 170.093 207.109 168.986 207.421 167.999C207.685 167.205 207.613 166.435 207.757 165.664C207.877 165.063 207.661 164.533 207.685 163.98C207.733 162.824 207.565 161.669 207.637 160.514C207.661 160.056 207.445 159.503 207.349 158.997C207.277 158.612 207.181 158.227 207.229 157.842C207.301 157.409 207.061 157.216 206.725 157.12C206.125 156.976 205.572 157.216 205.02 157.361C204.948 157.361 204.828 157.553 204.852 157.625C205.26 158.636 204.492 159.599 204.78 160.634C205.356 162.728 204.948 164.87 205.02 166.988C205.068 168.168 204.9 169.395 204.636 170.574C204.564 170.935 204.804 171.224 204.78 171.513C204.732 172.163 204.564 172.813 204.3 173.415C204.18 173.679 203.724 173.872 204.156 174.233V174.305C203.34 174.714 203.556 175.773 202.836 176.303C202.404 176.616 202.164 177.193 201.852 177.651C201.804 177.723 201.804 177.843 201.708 177.915C201.396 178.108 201.108 178.276 201.132 178.782C201.132 179.095 200.556 179.191 200.316 179.504C199.716 180.25 199.212 181.02 198.732 181.839C198.372 182.464 197.867 182.97 197.219 183.307C196.619 182.729 195.755 182.657 195.059 183.138C194.819 183.307 194.531 183.235 194.267 183.283C193.955 183.355 193.619 183.235 193.307 183.475C193.115 183.62 192.803 183.547 192.683 183.427C192.011 182.681 191.027 182.849 190.211 182.537C189.634 182.32 189.058 182.079 188.65 181.646C187.858 180.852 187.882 180.828 187.066 180.491C186.874 180.418 186.73 180.322 186.658 180.106C186.466 179.504 185.962 179.263 185.386 179.215C185.218 179.215 185.146 179.167 185.074 179.047C184.618 178.252 183.874 177.891 183.106 177.458C182.17 176.929 181.353 176.206 180.657 175.364C179.985 174.546 179.481 173.631 178.665 172.909C178.449 172.717 178.425 172.283 178.137 171.994C177.201 171.008 176.601 169.756 175.689 168.721C174.969 167.903 174.465 166.844 173.888 165.881C173.456 165.183 172.952 164.509 172.712 163.739C172.448 162.921 171.848 162.367 171.488 161.645C171.248 161.14 170.792 160.514 171.32 159.792C170.408 159.864 170.528 159.094 170.504 158.685C170.456 157.746 170.36 156.807 170.144 155.893C170.072 155.628 169.88 155.05 170.624 155.146C170.84 155.17 170.816 155.074 170.624 154.761C170.312 154.256 170.432 153.75 170.624 153.221C170.912 152.499 171.272 151.777 170.888 150.983C171.464 150.164 170.768 148.889 171.824 148.239C171.824 148.239 171.872 148.239 171.896 148.215C171.488 147.444 172.448 146.65 171.896 145.88C171.728 145.639 171.68 145.278 171.872 145.11C172.16 144.821 172.352 144.58 171.968 144.267C172.352 144.051 172.136 143.593 172.4 143.257C172.688 142.895 173.072 142.39 172.736 141.764C172.544 141.379 172.472 140.97 173.072 140.802C173.24 140.753 173.216 140.585 173.192 140.344C173.12 139.598 172.472 138.635 173.672 138.13C173.528 137.889 173.816 137.721 173.672 137.408C173.432 136.854 173.696 136.156 174.104 135.699C174.417 135.362 174.441 134.929 174.753 134.616C175.041 134.351 174.561 134.183 174.489 133.942C174.753 133.773 175.113 133.894 175.329 133.557C175.161 133.388 174.753 133.605 174.681 133.268C174.633 132.979 174.921 132.835 174.969 132.618C175.089 132.065 175.281 131.655 175.833 131.487C175.857 131.487 175.905 131.367 175.881 131.343C175.425 130.741 176.145 130.62 176.265 130.259C176.385 129.947 176.409 129.513 176.385 129.128C176.385 128.984 176.313 128.815 176.457 128.767C176.961 128.599 177.081 128.286 176.865 127.829C176.865 127.804 176.889 127.684 176.913 127.684C177.609 127.684 177.489 126.962 177.777 126.625C177.945 126.408 178.233 126.697 178.377 126.433C178.401 126.072 177.993 126.168 177.801 125.903C178.017 125.759 178.353 125.879 178.521 125.614C178.209 124.964 178.329 124.483 178.905 124.05C179.025 123.953 179.313 124.002 179.217 123.761C178.929 122.967 179.529 123.015 180.009 122.943C179.961 122.582 179.625 122.196 180.249 122.052C180.489 122.004 180.297 121.835 180.249 121.739C180.105 121.137 180.417 120.608 180.585 120.078C180.633 119.934 180.753 119.862 180.897 119.838C181.209 119.814 181.281 119.645 181.281 119.332C181.281 118.875 181.425 118.49 181.953 118.321C182.266 118.225 182.626 117.936 182.53 117.599C182.29 116.685 182.938 116.757 183.466 116.637C183.394 116.324 183.826 115.024 184.114 114.976C185.002 114.856 184.594 114.061 184.858 113.628C184.954 113.46 184.858 113.171 185.17 113.099C185.362 113.05 185.53 112.978 185.218 112.737C184.978 112.545 185.434 112.449 185.506 112.28C185.674 111.871 185.842 112.497 186.034 112.208C186.154 111.919 185.65 111.775 185.77 111.39C185.914 111.245 186.298 111.39 186.37 110.956C186.154 110.86 185.722 110.86 185.866 110.379C186.706 110.379 187.258 109.56 186.946 108.742C187.138 108.525 187.426 108.646 187.642 108.622C188.17 108.622 188.506 108.453 188.338 107.852C188.314 107.707 188.266 107.635 188.458 107.563C188.89 107.37 189.13 107.033 189.418 106.6C189.826 105.974 190.163 105.18 190.955 104.843C191.123 104.771 191.195 104.482 191.459 104.482C192.059 104.506 191.507 104.001 191.747 103.832C192.011 103.64 192.443 104.097 192.539 103.688C192.659 103.11 193.139 102.821 193.379 102.364C193.571 101.979 193.859 101.762 194.219 101.522C194.435 101.377 194.891 101.233 194.603 100.775C194.555 100.703 194.579 100.559 194.747 100.559C195.515 100.462 195.827 99.9089 196.067 99.2591C196.283 98.7295 196.859 98.537 197.195 98.0797C197.651 97.4298 198.372 97.0447 198.636 96.1783C198.876 95.4321 199.62 94.9989 200.172 94.4694C200.556 94.0843 200.652 93.266 201.516 93.3622C201.612 93.3622 201.756 92.6883 202.02 92.3995C202.38 92.568 202.212 92.9531 202.452 93.1938C202.404 92.592 202.884 92.0866 202.596 91.4608C202.548 91.3405 202.452 91.1479 202.596 91.0757C203.484 90.6906 203.58 89.3668 204.732 89.3187C204.828 89.3187 204.996 89.3187 204.804 89.1743C204.492 88.9577 204.804 88.7651 204.876 88.7651C205.332 88.6689 205.308 88.4522 205.212 88.0671C205.164 87.8987 205.428 87.4414 205.476 87.4173C206.149 87.2007 206.341 86.5508 206.749 86.1176C207.109 85.7566 207.325 85.227 207.565 84.7457C207.685 84.5291 207.853 84.4328 208.021 84.5531C208.213 84.6735 208.069 84.8419 207.973 84.9623C207.901 85.0345 207.781 85.1789 207.805 85.227C208.237 86.0213 207.421 86.3342 207.157 86.8396C206.869 87.4414 206.533 88.0431 206.317 88.6689C205.957 89.7519 205.236 90.6906 205.044 91.87C204.996 92.2069 204.9 92.7605 204.66 93.0253C204.324 93.3863 204.204 93.7955 204.036 94.2287C203.868 94.6379 203.724 95.047 203.556 95.4562C203.46 95.6728 203.388 95.8654 203.556 96.082C203.676 96.2023 203.676 96.3468 203.556 96.443C202.908 96.9485 202.956 97.7427 202.62 98.3444C202.284 98.9702 202.26 99.6442 201.924 100.222C201.708 100.607 201.468 101.016 201.636 101.473C201.78 101.858 201.276 101.883 201.276 102.268C201.228 103.688 200.556 105.011 200.532 106.48C200.532 107.25 200.364 108.116 200.172 108.838C199.956 109.633 199.884 110.499 199.5 111.245C199.14 111.967 199.308 112.858 198.732 113.556C197.699 113.339 196.523 113.484 195.347 113.484C194.939 113.484 194.507 113.724 194.099 113.484C193.883 113.363 193.787 113.508 193.787 113.7C193.787 113.917 193.643 114.061 193.475 114.158C192.995 114.398 192.971 114.735 193.307 115.072C193.499 115.265 193.571 115.457 193.475 115.674C192.779 117.046 193.307 118.394 193.547 119.741C193.619 120.151 194.051 120.776 193.091 120.776C192.971 120.776 192.899 121.065 193.139 121.113C194.387 121.426 194.411 122.678 194.339 123.424C194.195 124.868 194.795 126.096 195.035 127.419C195.131 127.925 195.275 128.454 195.419 128.96C195.515 129.273 195.491 129.706 195.299 129.802C194.723 130.067 194.987 130.404 195.107 130.765C195.659 130.332 196.307 130.235 196.955 130.115C197.459 130.019 197.171 130.404 197.291 130.548C197.939 129.345 199.02 129.85 200.124 129.874C199.404 130.645 199.956 131.294 200.22 131.896C200.436 132.402 200.388 133.124 201.18 133.388C201.54 133.509 201.468 134.76 201.3 135.218C201.156 135.627 201.228 136.132 201.42 136.541C201.516 136.758 201.612 136.999 201.828 137.143L202.5 138.563C202.5 138.563 202.548 138.756 202.428 138.756C201.636 138.876 202.116 139.381 202.212 139.67C202.452 140.513 202.764 141.331 203.028 142.173C203.124 142.438 203.172 142.703 202.956 142.871C201.876 143.762 201.3 145.014 200.508 146.097C200.244 146.458 199.956 146.674 199.5 146.53C199.38 146.482 199.188 146.337 199.14 146.506C198.828 147.469 198.252 146.819 197.747 146.771C197.603 146.771 197.483 146.698 197.315 146.819C197.651 147.18 197.988 147.396 198.54 147.324C198.924 147.276 199.236 147.228 199.404 147.878C199.644 148.889 200.292 149.779 200.748 150.742C201.012 151.32 201.468 151.897 201.876 152.09C202.356 152.33 202.932 152.691 203.508 152.74C204.276 152.812 204.948 153.173 205.74 153.173C206.053 153.173 206.461 153.293 206.797 153.654C207.397 154.28 208.309 154.497 209.101 154.834C209.437 154.978 209.413 154.352 209.821 154.497C209.629 154.978 209.917 155.122 210.325 155.243C210.925 155.387 211.333 156.109 212.077 155.917C212.173 155.917 212.221 155.989 212.245 156.061C212.413 156.687 212.917 156.783 213.445 156.855C213.541 156.855 213.709 156.855 213.757 156.927C214.19 157.722 215.03 157.89 215.774 158.155C216.398 158.372 217.07 158.54 217.67 158.757C218.342 158.997 218.87 159.719 219.71 159.792C219.806 159.792 219.806 159.96 219.782 160.08C219.71 160.634 220.142 160.61 220.43 160.514C221.414 160.201 222.063 160.875 222.855 161.164C223.215 160.562 223.359 160.538 224.007 161.115C224.175 160.73 223.191 159.864 224.607 160.056C224.199 159.936 223.959 160.153 223.695 159.888C224.031 159.551 223.551 158.973 224.103 158.636C224.247 158.54 223.983 158.372 223.911 158.372C223.359 158.54 223.383 158.251 223.479 157.866C223.479 157.818 223.527 157.77 223.551 157.722C223.671 157.337 222.855 157.457 223.167 157.216C223.431 157 223.479 156.927 223.263 156.711C223.095 156.542 223.239 156.35 223.263 156.157C223.335 155.074 223.431 153.967 223.287 152.884C223.239 152.427 223.527 152.475 223.839 152.379C223.119 152.306 223.167 151.777 223.047 151.319C222.927 150.886 223.359 151.055 223.479 150.79C222.759 150.79 222.663 150.285 222.807 149.755C222.927 149.274 222.255 149.081 222.639 148.479C222.543 148.576 222.591 148.479 222.639 148.479C223.071 148.455 223.599 148.215 223.863 148.672C224.151 149.153 224.319 149.755 224.055 150.309C224.007 150.429 223.839 150.597 223.983 150.646C224.751 150.886 224.583 151.632 224.823 152.162C224.919 152.354 225.039 152.499 224.751 152.595C224.511 152.691 224.583 152.86 224.655 152.98C225.159 153.75 225.015 154.641 225.087 155.483C225.087 155.7 225.087 155.82 225.279 156.013C225.471 156.205 224.823 156.855 225.639 156.855C225.687 157.337 225.687 157.77 225.303 158.131C225.471 158.564 226.407 158.396 225.975 159.142C226.191 159.214 226.239 159.021 226.311 159.046C226.935 159.19 227.367 158.829 227.583 158.372C227.823 157.842 228.303 158.059 228.591 157.818C228.975 157.529 229.359 157.457 229.84 157.505C230.536 157.577 231.16 157.24 231.784 156.927C232.768 156.422 233.608 155.604 234.664 155.195C234.736 155.17 234.784 155.098 234.832 155.05C235.432 154.111 236.416 153.967 237.376 153.799C237.472 153.799 237.641 153.799 237.689 153.726C238.241 153.077 239.081 153.052 239.753 152.667C240.185 152.427 240.737 152.186 240.833 151.584C241.001 151.656 241.001 151.993 241.193 151.873C241.721 151.536 242.537 151.247 242.657 150.79C242.921 149.707 243.209 150.646 243.449 150.694C243.713 150.333 243.689 150.405 244.217 150.573C244.553 150.694 245.033 150.742 245.321 150.333C245.225 150.092 244.961 150.212 244.793 149.972C245.081 149.924 245.393 149.779 245.537 149.899C246.018 150.285 246.33 150.236 246.882 149.899C247.626 149.442 248.37 148.84 249.282 148.672C249.81 148.552 250.362 148.552 250.722 148.094C250.794 147.998 251.034 147.902 250.986 147.805C250.626 147.132 251.322 146.795 251.442 146.289C251.538 145.88 251.586 145.567 251.274 145.23C250.938 144.845 250.698 144.436 250.77 143.834C250.818 143.473 250.794 142.92 250.194 142.799C250.026 142.751 250.074 142.462 250.002 142.39C249.834 142.222 250.002 141.524 249.378 141.933C249.282 142.005 249.186 141.885 249.114 141.788C249.018 141.644 249.066 141.524 249.162 141.427C249.714 140.826 250.242 140.224 250.818 139.646C251.13 139.333 251.586 139.406 251.994 139.43C253.074 139.454 253.555 138.9 253.29 137.865C253.218 137.576 253.17 137.48 252.834 137.432C252.09 137.36 251.37 137.143 250.746 137.841C250.506 138.106 249.906 138.274 249.786 138.467C249.546 138.876 249.042 138.876 248.826 139.213C248.226 140.176 247.434 140.248 246.69 139.309C246.522 139.093 246.45 138.828 246.114 138.828C245.826 139.117 246.114 139.406 245.994 139.742C245.874 139.574 245.441 139.887 245.561 139.165C245.658 138.708 245.85 138.611 246.066 138.347C246.498 137.793 247.146 137.432 247.458 136.758C247.578 136.517 248.034 136.325 248.322 136.228C248.778 136.084 249.042 135.771 249.402 135.555C250.218 135.073 251.082 134.592 252.21 134.688C251.706 134.207 251.898 133.533 251.466 133.051C251.298 132.835 251.106 132.618 250.866 132.739C249.81 133.268 248.49 133.364 247.89 134.616C247.626 135.194 246.21 135.843 245.658 135.723C245.177 135.627 244.769 134.64 245.129 134.327C245.682 133.87 246.09 133.268 246.57 132.739C247.218 132.016 248.13 131.968 248.922 131.679C249.234 131.559 249.546 131.415 249.906 131.391C250.578 131.343 250.794 130.837 250.866 130.259C250.962 129.658 250.65 129.369 250.122 129.634C249.354 130.019 248.466 130.115 247.722 130.524C247.218 130.789 246.882 131.318 246.426 131.631C245.874 132.041 245.754 132.714 245.345 133.196C245.105 133.509 244.961 133.798 244.553 133.364C244.457 133.268 244.145 133.364 243.929 133.364C243.689 132.955 243.929 132.546 244.025 132.137C244.241 131.054 244.409 131.15 245.057 130.187C245.489 129.537 246.186 129.297 246.546 128.671C246.546 128.671 246.57 128.599 246.594 128.599C247.506 128.551 248.106 127.853 248.85 127.516C249.258 127.323 249.498 127.227 249.186 126.697C248.802 126.962 248.418 127.082 247.938 126.914C247.746 126.842 247.122 126.577 247.218 127.323C247.218 127.371 247.17 127.443 247.146 127.443C245.585 127.684 244.889 128.96 243.977 130.019C243.785 130.235 243.641 130.741 243.233 130.476C242.945 130.284 242.513 129.971 242.825 129.465C242.993 129.176 242.393 129.176 242.609 128.815C243.353 128.791 243.209 128.021 243.497 127.564C243.833 127.034 243.833 126.312 244.697 126.24C245.105 126.216 244.601 125.855 244.769 125.735C245.513 125.277 246.138 124.724 246.69 124.05C246.762 123.953 247.05 124.05 247.242 124.026C247.65 124.026 247.866 123.689 248.034 123.4C248.202 123.087 247.986 122.822 247.65 122.654C248.37 122.654 249.09 122.413 249.666 123.087C250.074 122.533 250.218 121.98 250.218 121.378C250.218 121.306 250.194 121.186 250.218 121.137C250.746 120.536 250.65 119.766 250.722 119.092C250.842 118.153 251.202 117.238 251.106 116.276C251.058 115.842 250.962 115.433 251.394 115C251.682 114.711 251.394 113.989 251.634 113.508C252.018 112.737 251.946 111.895 251.994 111.053C251.994 110.692 252.138 110.331 252.21 109.97C252.21 109.946 252.234 109.921 252.21 109.897C252.09 108.646 252.81 107.442 252.378 106.167C252.306 105.998 252.378 105.637 252.426 105.565C252.858 104.987 252.546 104.313 252.738 103.712C253.098 102.484 253.05 101.185 253.074 99.8848C253.074 98.6333 253.41 97.4298 253.482 96.2023C253.53 95.5284 253.554 94.8304 253.578 94.1565C253.578 93.6029 253.41 92.9771 253.651 92.3995C253.651 92.3754 253.675 92.3514 253.675 92.3273C253.386 91.6293 253.747 90.9554 253.675 90.2333C253.579 89.5594 253.555 88.7651 254.203 88.1634C254.611 87.7783 254.371 87.2007 254.203 86.7674C253.867 85.8528 254.107 85.0345 254.323 84.168C254.443 83.6626 254.419 83.1331 254.539 82.6276C254.611 82.2425 254.347 81.7852 254.803 81.4964C254.899 81.4242 254.803 81.3279 254.803 81.2317C254.635 80.293 254.539 79.3302 255.283 78.56C255.355 78.4878 255.331 78.4397 255.283 78.3434C254.899 77.1641 255.187 75.9847 255.307 74.8053C255.403 73.9629 255.883 73.1687 255.715 72.3022C255.667 72.0615 255.715 71.8449 255.931 71.6283C256.171 71.3876 256.435 71.195 256.219 70.7137C256.051 70.2804 256.771 69.775 257.299 69.8953C257.659 69.9675 257.971 69.7509 258.259 69.6787C258.427 69.8231 258.403 69.9675 258.403 70.1119C258.427 71.0025 258.787 71.3876 259.603 71.4598C259.675 71.4598 259.819 71.4598 259.843 71.5079C260.035 72.0374 260.683 72.1578 260.899 72.5669C261.139 73.0002 261.908 73.1205 261.692 73.8426C261.692 73.8426 262.124 74.0592 262.34 74.0833C262.652 74.1314 262.988 73.987 262.892 74.5887C262.844 74.9016 263.348 74.7572 263.588 75.0219C264.044 75.5515 264.5 76.105 265.196 76.4179C265.652 76.6105 265.892 77.2122 266.492 77.2603C266.564 78.199 267.308 78.5119 268.004 78.8489C268.1 78.897 268.196 79.1377 268.172 79.2099C267.764 79.8597 268.412 79.7875 268.652 79.9801C268.844 80.1245 269.276 80.0042 269.108 80.5096C269.06 80.7021 269.3 80.7503 269.468 80.7744C270.261 80.9188 270.525 81.5927 270.837 82.1703C271.341 83.109 272.013 83.9273 272.709 84.7457C273.045 85.1548 273.981 85.2752 273.597 86.1417C274.077 86.6712 274.437 87.321 275.037 87.7061C275.277 87.8505 275.421 87.8987 275.421 88.2116C275.421 88.4522 275.613 88.6448 275.757 88.8614C275.973 89.1984 276.213 89.5113 276.285 89.9926C276.381 90.5943 276.933 91.0276 277.39 91.4127C277.678 91.6293 277.846 91.9181 278.014 92.1829C278.206 92.4717 278.302 92.8087 278.662 93.0253C279.142 93.29 278.806 93.7473 278.71 94.1565C279.142 94.2528 279.67 94.1565 279.742 94.8064C279.742 94.9026 279.934 95.023 280.054 95.047C280.582 95.1193 280.942 95.2396 280.582 95.8654C280.486 96.0339 280.678 96.0579 280.798 96.1542C281.182 96.419 281.398 96.8281 281.566 97.2373C281.806 97.8149 282.094 98.2 282.814 98.2C282.718 98.5129 282.262 98.8258 283.006 98.9702C283.486 99.0665 283.51 99.7645 283.126 100.318C284.254 100.799 285.262 102.34 285.19 103.543C285.19 103.784 285.262 103.977 285.431 103.977C286.055 103.977 286.247 104.602 286.703 104.795C286.823 104.843 286.919 104.819 286.799 104.963C286.391 105.469 286.847 105.685 287.183 105.758C287.783 105.878 287.759 106.456 287.783 106.72C287.951 107.9 287.879 107.9 288.935 108.574C289.031 108.622 289.175 108.766 289.079 108.911C288.767 109.44 289.175 109.849 289.391 110.162C290.087 111.173 290.135 112.376 290.567 113.46C290.567 113.484 290.567 113.532 290.567 113.532C291.191 114.085 291.143 115.024 291.743 115.602C291.863 115.698 292.103 115.77 291.983 115.963C291.743 116.372 291.647 116.613 292.271 116.613C292.319 116.613 292.391 116.757 292.271 116.877C292.079 117.19 292.079 117.19 292.415 117.431C291.887 117.768 291.887 117.768 292.367 118.057C292.559 118.177 292.511 118.394 292.583 118.538C292.727 118.851 292.463 119.429 293.135 119.477C293.376 119.477 293.207 119.766 293.183 119.886C293.111 120.199 292.991 120.512 292.895 120.8C292.991 121.113 293.328 120.752 293.448 120.993C293.448 121.162 293.352 121.162 293.231 121.186C293.063 121.21 292.799 121.186 292.847 121.498C292.895 121.739 293.087 121.715 293.231 121.643C293.52 121.498 293.664 121.691 293.736 121.884C293.856 122.196 293.472 122.148 293.328 122.269C293.544 122.533 294.288 122.413 293.808 123.039C293.712 123.159 293.88 123.304 294.024 123.328C294.36 123.4 294.384 123.689 294.336 123.905C294.24 124.363 294.408 124.676 294.816 124.844C294.696 125.205 294.336 125.037 294.144 125.253C294.384 125.446 294.624 125.614 294.816 125.759C294.888 126.023 293.736 125.927 294.696 126.384C294.912 126.481 295.128 126.866 294.984 127.179C294.744 127.684 295.104 127.877 295.488 128.093C294.84 128.695 294.936 129.489 294.936 130.235C294.936 130.548 295.128 130.669 295.416 130.693C295.368 130.789 295.344 130.885 295.512 130.885L295.416 130.933ZM196.619 135.097C196.715 135.242 196.811 135.242 196.883 135.121C197.507 134.183 198.684 134.086 199.5 133.437C199.836 133.172 199.836 132.883 199.764 132.594C199.716 132.305 199.356 132.353 199.14 132.402C198.468 132.546 197.699 132.714 197.267 133.196C196.931 133.533 196.211 133.557 196.235 134.255C196.235 134.327 195.995 134.471 195.827 134.496C195.323 134.592 195.011 135.001 194.675 135.29C194.339 135.555 194.387 136.06 194.483 136.493C194.603 137.023 195.059 136.83 195.347 136.902C195.731 136.999 195.947 136.71 196.115 136.349C196.259 136.036 196.307 135.723 196.283 135.41C196.259 135.097 196.307 135.001 196.595 135.097H196.619ZM196.043 138.828C195.467 139.069 195.875 139.742 195.347 140.007C196.403 140.264 197.195 139.991 197.723 139.189C197.723 139.189 197.915 138.996 198.012 138.9C198.732 138.274 199.5 137.721 200.364 137.287C200.58 137.191 200.868 137.191 200.916 136.878C200.412 136.517 199.668 136.541 199.212 137.023C199.02 137.215 198.852 137.384 198.612 137.384C198.18 137.384 198.204 138.082 197.723 137.961C197.531 138.852 196.763 139.02 196.067 139.309V138.828H196.043ZM200.484 139.983C200.364 140.465 200.076 140.874 199.716 141.138C199.068 141.644 198.42 142.197 197.939 142.823C197.363 143.545 197.459 142.799 197.243 142.607C197.003 143.112 196.403 142.871 196.019 143.184C196.187 143.425 196.451 143.401 196.595 143.545C196.883 143.81 197.099 144.147 197.627 143.834C197.963 143.618 198.564 143.738 198.756 143.329C199.188 142.486 200.028 142.077 200.604 141.403C200.796 141.211 200.892 141.018 200.772 140.753C200.652 140.513 200.556 140.248 200.46 140.007L200.484 139.983ZM285.719 174.281C286.151 174.209 286.583 174.064 286.559 173.896C286.511 173.27 286.943 172.861 287.111 172.355C287.279 171.898 287.111 171.393 287.447 170.984C287.591 170.815 287.879 170.334 287.303 170.141C287.183 170.093 286.871 170.574 286.727 170.719C286.271 171.152 286.607 171.778 286.247 172.235C286.031 172.5 285.719 172.765 286.031 173.15C285.647 173.439 286.199 173.92 285.695 174.281H285.719ZM290.759 117.455C291.047 118.081 291.191 118.779 291.215 119.356C291.215 119.982 291.575 120.415 291.695 120.969C291.743 121.258 291.911 121.33 292.175 121.21C292.463 121.089 292.367 120.921 292.247 120.752C291.887 120.175 291.911 119.525 291.743 118.899C291.599 118.321 291.215 117.84 290.759 117.455ZM265.556 292.025C265.1 292.145 264.644 291.76 264.26 292.289C264.116 292.482 263.804 292.338 263.732 292.025C263.684 291.856 263.66 291.688 263.444 291.784C263.444 292.699 264.284 292.819 264.812 293.132C264.98 293.228 265.556 293.565 265.868 293.06C265.724 292.939 265.652 292.723 265.388 292.699C265.124 292.699 265.004 292.506 264.932 292.265C265.364 292.723 265.412 292.314 265.58 292.001L265.556 292.025Z" fill="#333333"/>
<path d="M229.648 54.9968C228.807 55.093 229.071 54.3228 229.071 54.0821C229.167 53.0472 229.071 52.8546 228.087 52.8546C227.127 52.8546 226.167 52.9268 225.207 52.8787C224.343 52.8546 223.479 52.9268 222.639 52.9509C222.207 52.9509 221.823 52.9509 221.582 52.5418C221.318 52.7102 220.838 52.3492 220.694 52.8787C220.67 53.0231 220.574 53.3119 220.406 53.1916C219.854 52.7102 219.014 52.975 218.51 52.3733C218.15 53.1194 218.126 53.0953 217.454 52.638C217.214 52.4695 216.878 52.3492 216.614 52.2529C216.254 52.1326 216.35 52.6862 216.158 52.9509C215.822 52.5658 216.23 52.1085 215.918 51.7475C215.63 52.0604 215.294 51.8438 214.934 51.7475C214.934 51.579 215.174 51.6271 215.174 51.3383C214.19 51.4827 213.493 50.6403 212.509 50.5441C212.293 50.5441 211.957 50.3996 211.957 50.0386C211.957 49.5572 211.309 49.5091 211.285 49.5332C210.829 49.8701 210.949 49.3888 210.853 49.2443C210.637 48.9315 210.757 48.4742 210.109 48.3538C209.797 48.3057 209.461 47.6799 209.077 47.4151C208.429 46.9819 208.429 46.9819 208.357 46.1395C207.829 46.2117 207.565 45.971 207.349 45.4415C206.965 44.5269 206.341 43.7086 205.644 42.9865C205.404 42.7217 205.356 42.4089 205.308 42.096C205.092 40.9407 204.324 40.002 204.18 38.8467C204.18 38.7504 204.084 38.7264 204.036 38.6782C203.636 38.3092 203.396 37.892 203.316 37.4267C203.532 37.3544 203.364 37.7155 203.556 37.6433C203.556 37.5951 203.628 37.547 203.604 37.4989C203.292 36.9453 203.604 36.3917 203.604 35.8141C203.604 35.429 203.604 35.5974 203.364 35.6215C203.004 35.6215 203.172 35.2364 203.124 35.0198C202.98 34.6106 203.412 34.8032 203.628 34.6347C202.668 33.8645 203.172 32.8295 203.052 31.8909C202.98 31.2651 203.628 30.5671 202.932 29.9894C202.788 29.8691 202.884 29.7006 203.004 29.6284C203.22 29.484 203.34 29.3637 203.076 29.1711C203.076 29.1711 202.812 28.7619 203.292 28.7379C203.556 28.7379 203.316 28.5453 203.244 28.425C203.076 28.1362 203.196 28.1602 203.34 27.6789C203.436 27.4141 203.316 26.9568 203.196 26.6439C203.052 26.1625 203.244 25.609 202.884 25.1276C202.764 24.9832 203.22 24.6462 203.532 24.5499C203.412 24.237 203.124 24.4296 202.908 24.2852C203.22 24.0926 203.508 23.876 203.628 23.5391C203.46 23.3224 203.268 23.3946 203.052 23.4668C203.052 23.1299 203.484 22.9855 203.412 22.6485C203.22 21.8302 203.604 21.06 203.82 20.362C204.012 19.7362 204.132 19.0623 204.492 18.4846C204.78 18.0273 204.492 17.6904 203.988 17.4738C204.324 17.3053 204.612 17.1609 204.876 17.0405C205.044 16.6554 204.396 16.872 204.54 16.511C204.66 16.2463 204.924 16.4388 205.212 16.1981C205.356 16.1018 204.3 15.8371 205.116 15.6445C205.284 15.5964 205.212 15.4761 205.116 15.3316C204.9 14.9947 204.948 14.7059 205.26 14.3448C205.596 13.9838 206.005 13.5506 205.596 12.9489C205.812 12.8285 206.029 12.7804 206.173 12.8526C206.533 13.0211 206.725 12.8044 206.749 12.5397C206.773 12.3231 206.749 12.1305 207.037 12.1546C207.253 12.1546 207.253 12.3953 207.301 12.5397C207.877 14.9706 208.933 17.1849 210.085 19.3511C210.637 20.3861 211.381 21.3007 212.245 22.0949C212.605 22.4319 212.917 22.7929 213.181 23.2262C213.373 23.5391 213.589 23.8279 213.974 23.9241C214.454 24.0445 214.502 24.5981 214.886 24.8388C215.222 25.0313 216.422 24.9832 216.614 24.6462C216.83 24.3092 216.662 23.9964 216.398 23.7557C215.198 22.6485 214.19 21.3729 213.325 19.9769C213.013 19.4715 212.413 19.1586 212.293 18.5087C212.293 18.3884 212.101 18.2199 212.029 18.244C211.237 18.3162 211.069 17.6663 210.781 17.1609C209.821 15.5242 209.197 13.7431 208.741 11.9139C208.645 11.5047 208.597 11.0956 208.669 10.6864C208.693 10.4698 208.621 10.3254 208.933 10.205C209.197 10.1088 209.317 9.77179 209.029 9.38669C208.645 8.88125 209.149 8.47209 209.485 8.25547C209.869 7.99071 210.205 7.72596 210.517 7.36493C210.901 6.93169 211.525 6.95576 212.029 6.64287C212.221 6.52253 212.197 6.52253 212.173 6.35405C212.125 5.96895 212.365 5.75233 212.773 5.80047C212.845 5.80047 212.941 5.87267 212.965 5.80047C213.085 5.29503 213.589 5.27096 213.926 5.12655C213.902 4.76552 213.565 4.95807 213.493 4.78959C213.517 4.52483 213.733 4.42856 213.95 4.35635C214.406 4.23601 214.814 4.13973 215.054 3.65836C215.198 3.36954 215.39 3.89905 215.438 3.7787C215.75 3.15292 216.35 3.53802 216.758 3.34547C217.262 3.08071 217.91 2.98444 218.198 2.38272C218.27 2.26238 218.462 1.99763 218.558 2.11797C219.302 2.91223 219.662 1.94949 219.926 1.68473C220.334 1.2515 220.838 1.27557 221.198 1.34777C221.606 1.39591 221.823 1.29963 222.063 1.08302C222.303 0.866399 222.591 0.746056 222.903 0.721988C222.975 0.721988 223.095 0.721988 223.143 0.697919C224.007 -0.19262 225.159 0.14434 226.167 0.120272C227.079 0.120272 228.087 -0.240758 228.951 0.409095C229.023 0.457233 229.143 0.50537 229.167 0.481301C229.648 -7.13132e-05 230.2 0.240615 230.608 0.481301C231.28 0.866399 231.76 0.216546 232.384 0.264684C232.864 0.312821 233.44 -0.0241399 233.752 0.649782C233.776 0.721988 233.968 0.770125 234.04 0.746056C234.52 0.601645 234.88 0.866399 235.24 1.10709C235.648 1.37184 235.96 1.75694 236.512 1.61253C236.56 1.61253 236.704 1.7088 236.704 1.73287C236.656 2.45493 237.4 2.21424 237.713 2.57527C238.049 3.00851 237.953 2.28645 238.241 2.23831C238.337 2.91223 238.721 3.17699 239.393 3.24919C239.537 3.24919 239.945 3.51395 240.113 3.99532C240.305 4.64517 240.977 5.22282 241.577 5.65606C242.489 6.32998 243.521 7.12424 244.049 7.99071C244.697 9.02567 245.297 10.0847 245.994 11.0956C246.57 11.938 247.122 12.9489 247.218 14.0801C247.266 14.754 247.53 15.4039 247.794 16.0296C247.842 16.1259 247.962 16.2944 247.962 16.2944C247.122 16.9924 248.178 17.57 248.082 18.1958C248.034 18.5328 248.202 18.8697 248.082 19.2067C247.914 19.5918 247.794 19.9769 248.154 20.362C248.202 20.4101 247.962 21.3729 247.962 21.4451C247.938 21.782 247.842 22.0468 247.602 22.3116C247.458 22.48 247.914 22.6244 248.13 22.817C247.722 23.1299 247.458 23.4909 247.458 24.0445C247.458 24.213 247.458 24.2852 247.578 24.3574C247.794 24.5018 248.058 24.6462 248.082 24.9591C248.106 25.1757 248.202 25.1276 248.37 25.1035C248.73 25.0554 248.634 25.1517 248.97 25.5127C249.234 25.7774 249.498 26.1866 250.026 26.2107C250.842 26.2107 251.322 26.8605 251.274 27.6789C251.274 27.8714 251.274 28.1362 251.514 28.1602C252.33 28.2565 252.354 28.786 252.45 29.484C252.57 30.519 252.474 31.5298 252.426 32.5407C252.426 32.7333 252.522 33.0221 252.138 32.998C252.042 32.998 251.994 33.0462 251.994 33.1424C251.946 34.1774 251.058 35.6456 250.29 36.2714C249.57 36.8731 248.706 37.2341 247.914 37.7395C247.41 38.0765 246.69 38.3172 245.994 38.3894C245.586 38.4375 245.393 38.8226 245.081 39.0152C244.961 39.0874 245.057 39.2077 245.081 39.304C245.153 39.4484 245.297 39.4725 245.417 39.4003C245.514 39.3521 245.61 39.1837 245.658 39.2077C245.946 39.3281 246.21 39.7854 246.426 39.5928C246.81 39.2318 247.026 39.4725 247.314 39.5928C247.53 39.6891 247.746 39.641 247.962 39.5928C248.298 39.4966 248.538 39.641 248.586 39.9298C248.682 40.6037 249.162 40.4352 249.474 40.2908C249.93 40.0742 250.29 40.1223 250.698 40.363C251.034 40.5556 251.37 40.8444 251.778 40.4593C251.826 40.4112 251.97 40.4352 251.994 40.4593C252.786 41.2536 253.915 41.0129 254.851 41.3258C255.547 41.5665 256.099 41.9756 256.747 42.2644C257.323 42.5051 256.867 43.0106 256.747 43.3235C256.603 43.6845 256.291 44.0455 255.739 43.8289C254.467 43.3235 253.266 42.6014 251.85 42.457C251.802 42.457 251.706 42.457 251.706 42.4329C251.61 41.5183 250.842 42.2644 250.578 41.9997C250.146 41.5424 249.522 41.5905 249.066 41.3017C248.61 41.0129 248.442 41.0369 248.466 41.5665C248.466 41.8071 248.298 41.9756 248.298 42.2644C249.378 42.6255 250.338 43.2513 251.514 43.4438C251.874 43.516 252.354 43.7326 252.594 43.9252C253.074 44.3343 253.603 44.2862 254.107 44.4066C254.587 44.5269 255.643 45.4656 255.715 45.8988C255.763 46.1876 255.163 46.6209 254.803 46.5727C253.987 46.4524 253.314 46.0191 252.618 45.6341C252.33 45.4656 252.474 45.2971 252.786 45.1768C252.042 45.5137 251.61 45.0083 251.274 44.6713C250.626 44.0696 249.786 43.9733 249.09 43.516C248.898 43.3957 248.61 43.4438 248.466 43.6123C248.274 43.853 248.034 43.7808 247.674 43.7808C248.058 44.2381 248.274 44.5991 248.802 44.6954C249.186 44.7676 249.522 44.9842 249.738 45.3693C249.834 45.5618 250.242 45.61 250.506 45.6581C250.77 45.6822 251.106 45.5137 250.938 46.0432C250.914 46.1395 251.13 46.1876 251.25 46.2839C251.898 46.7171 252.546 47.1504 253.29 47.3911C254.251 47.704 254.347 48.1131 253.747 48.8592C253.434 49.2443 253.242 49.0999 252.93 48.9555C252.234 48.6667 251.85 48.0409 251.274 47.6077C250.242 46.8616 249.21 46.0673 248.178 45.3212C248.106 45.273 247.962 45.249 247.89 45.2249C247.842 45.2971 247.794 45.3212 247.77 45.3693C247.194 46.6931 248.466 46.9578 249.066 47.4633C250.314 48.5223 251.778 49.3166 252.882 50.5922C252.882 50.8569 252.522 50.8088 252.426 51.0014C252.474 51.1939 252.666 51.1698 252.81 51.218C252.978 51.2661 253.026 51.3624 253.002 51.5309C253.002 51.7475 252.834 51.6512 252.714 51.6753C252.162 51.8197 251.538 52.1567 251.058 51.7234C250.458 51.1939 249.762 50.8329 249.186 50.3034C248.826 49.9664 248.13 49.9183 248.226 49.2203C247.29 49.2203 247.17 48.1131 246.402 47.9206C246.018 47.8243 246.114 47.2948 245.706 47.1263C245.441 47.006 245.321 46.5246 244.889 46.6931C244.769 46.7412 244.745 46.669 244.745 46.5968C244.673 45.4656 243.305 45.4415 242.945 44.5269C242.921 44.4547 242.273 44.3584 242.081 44.6713C241.769 45.2008 241.433 45.7063 240.881 45.9951C240.809 46.0192 240.737 46.1395 240.761 46.1876C241.001 47.0541 240.233 46.9819 239.801 47.1504C239.273 47.367 239.057 47.6799 239.249 48.2094C239.417 48.6667 238.985 48.7148 238.745 48.9796C239.585 49.2684 239.321 50.0145 239.417 50.6163C239.465 50.9051 239.417 50.9292 239.681 50.9532C239.729 50.9532 239.777 50.9051 239.825 50.881C239.825 50.9532 239.801 51.0254 239.825 51.0736C239.873 51.4587 239.729 51.916 240.185 52.1567C240.353 52.2529 240.209 52.3973 240.185 52.5177C240.137 53.0472 240.185 53.4804 240.689 53.8655C241.121 54.2025 241.409 54.7801 241.457 55.3337C241.505 55.7188 241.625 55.791 241.937 55.9595C242.609 56.2965 243.257 56.2483 243.929 56.0558C244.001 56.0558 244.145 56.0076 244.145 56.0558C244.505 56.7056 245.441 56.6093 245.754 57.3314C245.778 57.4036 245.826 57.4999 245.898 57.524C246.546 57.6684 246.834 58.1979 247.002 58.7515C247.194 59.4254 247.89 59.4495 248.322 59.8345C248.706 60.1956 248.946 60.7251 249.594 60.8214C249.93 60.8695 249.378 61.399 249.834 61.5434C250.002 61.4712 249.834 61.0861 250.146 61.1102C250.434 61.1102 250.314 61.4471 250.41 61.5193C250.746 61.8082 250.458 62.5302 251.178 62.5784C251.37 62.5784 251.13 62.9875 251.322 63.2282C251.922 64.0947 252.45 65.0334 253.242 65.7554C253.963 66.4294 254.227 67.2236 254.203 68.0901C254.179 69.0528 254.227 70.0637 253.555 70.882C253.819 71.4356 252.906 71.8929 253.386 72.5428C253.459 72.6391 253.05 73.2167 252.858 73.5537C252.738 73.7462 252.666 73.8666 252.69 74.1072C252.81 74.9256 252.594 75.7198 252.474 76.5382C252.306 77.5731 252.258 78.6081 252.114 79.643C251.994 80.341 251.802 81.0871 251.874 81.6889C251.946 82.3868 251.562 82.8442 251.538 83.4459C251.466 84.6974 251.37 85.949 251.274 87.2247C251.274 87.4894 251.202 87.7782 251.418 88.0189C251.49 88.1152 251.514 88.1874 251.466 88.3077C251.226 88.9335 251.25 89.3427 251.49 89.9444C251.514 90.0166 251.538 90.137 251.49 90.161C250.842 90.859 251.274 91.6773 251.202 92.4475C251.13 93.4103 251.202 94.373 251.082 95.3598C251.01 95.8653 251.034 96.3467 250.818 96.828C250.674 97.1409 250.938 97.2613 251.25 97.4057C250.362 97.8871 250.578 98.7295 250.578 99.3793C250.578 100.92 250.554 102.436 250.17 103.904C250.05 104.386 250.674 104.53 250.362 104.915C250.122 105.204 249.858 105.493 249.978 105.854C250.146 106.407 249.618 107.057 250.218 107.563C250.314 107.635 249.882 107.707 249.906 107.972C250.074 109.151 249.282 110.21 249.33 111.317C249.378 112.665 248.586 113.869 248.874 115.241C248.922 115.505 248.442 115.89 248.466 116.324C248.538 117.046 248.37 117.744 248.322 118.442C248.25 119.188 247.746 119.886 248.034 120.656C247.362 121.041 247.962 121.787 247.578 122.317C247.338 122.124 247.218 121.932 247.218 121.667C247.194 120.319 246.81 118.995 246.786 117.623C246.762 116.829 246.642 115.963 246.258 115.216C246.042 114.807 246.066 114.326 246.114 113.941C246.162 113.219 245.826 112.906 245.249 112.761C244.985 112.689 244.913 112.497 244.817 112.328C244.553 111.847 244.505 111.173 243.737 111.125C243.713 111.125 243.641 110.956 243.665 110.908C243.737 110.74 243.785 110.956 243.857 110.956C244.145 110.956 244.193 110.884 244.097 110.619C243.905 110.138 243.857 109.584 243.569 109.175C243.329 108.838 243.089 108.622 243.329 108.188C243.425 108.044 243.233 107.972 243.113 107.9C242.897 107.755 242.633 107.755 242.489 107.876C241.361 108.959 239.777 108.91 238.433 109.512C237.496 109.945 236.608 110.595 235.528 110.74C234.784 110.836 234.304 111.438 233.656 111.727C232.888 112.063 232.072 112.28 231.376 112.713C230.848 113.026 230.392 113.459 229.816 113.676C228.807 114.061 227.871 114.567 226.983 115.144C225.927 115.866 224.751 116.372 223.767 117.166C222.807 117.96 221.799 118.706 220.862 119.525C220.118 120.175 219.398 120.849 218.462 121.522C218.966 121.667 219.35 121.739 218.918 122.22C218.798 122.365 218.798 122.726 218.87 122.943C218.942 123.159 219.422 123.279 218.822 123.472C218.654 123.52 218.846 123.689 218.918 123.785C219.086 124.002 219.302 124.194 219.446 124.411C219.518 124.507 219.614 124.844 219.23 124.555C219.11 124.459 218.846 125.229 219.062 125.325C219.83 125.71 219.782 126.36 219.782 127.082C219.782 127.612 220.046 128.238 219.878 128.671C219.71 129.152 219.782 129.61 219.734 130.067C219.662 130.644 220.238 131.126 219.926 131.728C220.286 131.728 220.43 132.016 220.598 132.281C220.862 132.666 221.006 133.075 221.054 133.557C221.102 134.062 220.982 134.303 220.43 134.423C221.006 134.688 221.27 135.049 221.294 135.627C221.294 136.084 220.838 135.771 220.718 136.084C221.318 136.012 221.414 136.397 221.342 136.854C221.246 137.408 221.558 137.865 221.63 138.37C221.895 140.2 222.351 141.981 222.759 143.762C222.879 144.243 223.047 144.701 223.191 145.182C223.263 145.447 223.359 145.687 222.975 145.856C222.879 145.904 222.903 146.482 223.095 146.77C223.191 146.939 223.359 147.059 223.503 147.204C223.407 147.493 223.071 147.156 222.975 147.444C223.167 147.565 223.551 147.396 223.503 147.854C223.455 148.263 223.167 148.142 222.975 148.19C222.711 148.263 222.207 148.311 222.279 148.094C222.495 147.444 221.871 147.131 221.895 146.554C221.919 145.952 221.703 145.326 221.558 144.725C221.462 144.219 221.294 143.666 221.198 143.136C221.006 142.294 220.526 141.572 220.43 140.729C220.382 140.296 220.79 140.224 221.078 140.007C220.742 139.935 220.382 140.103 220.262 139.646C220.07 138.996 220.07 139.02 220.43 138.683C220.334 138.611 220.238 138.539 220.142 138.587C219.998 138.683 219.854 138.804 219.758 138.563C219.686 138.37 219.83 138.178 219.974 138.226C220.454 138.37 220.262 137.865 220.454 137.745C220.526 137.697 220.454 137.552 220.382 137.456C220.238 137.311 219.83 137.673 219.902 137.167C219.95 136.878 219.542 136.926 219.518 136.686C219.902 136.493 219.926 136.06 219.614 135.627C219.134 135.025 219.182 134.303 219.206 133.581C219.206 133.316 219.854 133.557 219.71 133.003C219.662 132.811 219.662 132.594 219.566 132.329C219.374 132.522 219.806 133.099 219.182 132.931C218.918 132.859 218.726 132.979 218.918 132.546C219.062 132.185 218.774 131.776 218.438 131.511C218.654 131.174 218.918 131.27 219.206 131.415C219.126 131.03 218.846 130.925 218.366 131.102C218.678 130.572 218.15 129.995 218.702 129.513C218.846 129.393 218.582 129.2 218.39 129.152C217.862 129.008 217.766 128.599 217.862 128.141C217.886 127.973 218.006 127.804 217.862 127.684C217.646 127.467 217.622 127.323 217.91 127.13C218.174 126.962 217.91 126.649 218.03 126.384C218.078 126.312 217.694 126.336 217.526 126.312C217.406 126.071 217.598 125.879 217.67 125.686C217.742 125.494 217.67 125.373 217.502 125.277C217.334 125.157 217.238 124.555 217.406 124.507C217.79 124.411 217.79 123.977 218.102 123.761C217.814 123.785 217.454 123.929 217.31 123.64C217.19 123.4 217.694 123.231 217.574 122.894C217.43 122.726 217.358 122.846 217.286 122.967C217.19 123.087 217.094 123.039 216.998 122.967C216.902 122.894 216.878 122.75 216.998 122.678C217.31 122.461 217.238 122.196 217.046 121.932C217.334 121.739 217.622 121.883 218.03 121.739C217.358 121.643 216.83 121.498 217.142 120.728C216.83 120.584 216.59 120.849 216.326 120.776C216.206 120.752 216.038 120.921 215.99 120.68C215.894 120.078 215.438 120.199 215.03 120.175C214.526 120.126 214.19 119.693 213.782 119.549C213.253 119.356 212.965 118.321 212.101 118.947C211.765 119.188 211.837 118.562 211.501 118.49C211.165 118.418 210.565 118.369 210.709 117.696C210.709 117.671 210.589 117.599 210.517 117.551C210.397 117.479 209.557 117.551 209.341 117.647C209.077 117.768 208.093 117.238 208.117 116.973C208.117 116.877 208.285 116.781 208.405 116.709C208.213 116.516 207.997 116.637 207.877 116.709C207.661 116.853 207.421 116.757 207.421 116.612C207.421 115.963 206.893 116.035 206.653 116.083C205.981 116.227 205.668 115.553 205.092 115.481C204.516 115.409 203.964 115.144 203.652 114.591C203.532 114.398 203.364 114.422 203.22 114.446C202.332 114.494 202.02 114.398 201.492 113.989C201.372 113.893 201.3 113.796 201.324 113.652C201.444 113.147 201.324 112.425 201.492 112.16C202.068 111.317 201.852 110.331 202.284 109.464C202.62 108.79 202.644 107.9 202.692 107.105C202.74 106.046 203.076 105.084 203.22 104.049C203.412 102.653 204.084 101.377 204.348 99.981C204.42 99.62 204.9 99.4034 204.564 98.8979C204.42 98.6813 204.9 98.7776 204.996 98.5369C205.332 97.4538 205.764 96.3707 206.269 95.3598C205.837 94.7341 206.701 94.5174 206.701 94.0842C206.701 93.0733 207.613 92.3994 207.661 91.4126C207.661 90.8831 208.261 90.5702 208.237 89.9925C208.213 89.1983 209.197 88.8132 209.125 88.0189C209.077 87.4172 209.653 87.2487 209.797 86.7914C210.061 85.9009 210.349 85.0103 210.637 84.1198C210.877 83.3977 211.165 82.6998 211.453 82.0258C211.813 81.1594 212.413 80.2448 211.981 79.1857C211.957 79.1135 211.981 79.0172 211.981 78.945C212.485 78.1267 212.989 77.2843 213.541 76.49C214.07 75.7439 214.574 74.9737 215.15 74.2998C215.678 73.674 216.158 73.0482 216.542 72.3502C216.998 71.5319 217.742 70.9061 217.934 69.9193C218.03 69.4139 218.558 68.9806 218.798 68.5233C219.302 67.5606 219.926 66.6941 220.55 65.8276C221.054 65.1537 221.318 64.4076 221.558 63.6374C221.654 63.3245 221.847 63.0597 222.111 62.9394C222.591 62.7228 223.167 62.6024 222.927 61.8563C223.671 61.4471 223.383 60.4844 223.959 59.979C224.223 59.7383 224.391 59.4254 224.223 58.944C224.127 58.6552 224.271 58.3182 224.727 58.1738C225.159 58.0294 225.663 57.9331 225.999 57.548C225.903 57.0907 225.495 57.4999 225.303 57.187C225.879 57.1148 226.383 56.9704 226.839 56.6094C227.103 56.4168 227.631 56.6093 227.991 56.7778C228.471 57.0426 228.855 56.7297 229.167 56.5131C229.359 56.3927 229.551 56.0558 229.263 55.6707C228.975 55.2856 229.623 55.1652 229.744 54.8042L229.648 54.9968ZM233.848 22.5763C233.56 22.817 233.272 23.0095 232.96 23.0577C232.696 23.1058 232.264 23.515 232.336 22.7689C232.336 22.7448 232.216 22.6726 232.144 22.6726C231.544 22.6485 230.944 22.456 230.392 22.7689C230.104 22.9133 229.888 22.9614 229.551 22.9373C228.927 22.8651 228.471 23.3946 227.895 23.5631C227.823 23.5631 227.775 23.7316 227.847 23.8519C227.919 23.9482 227.895 24.1408 227.799 24.1167C227.031 23.9723 227.463 24.6462 227.295 24.8869C227.223 25.0072 227.319 25.2961 227.103 25.272C226.575 25.2239 226.575 25.7052 226.479 25.97C226.359 26.2829 226.215 26.4754 225.999 26.7402C225.687 27.0771 225.159 27.4863 225.183 27.7992C225.207 28.2565 225.231 28.5213 224.895 28.8341C224.799 28.9304 224.799 29.0989 224.631 29.1952C224.271 29.4359 224.031 30.5671 224.367 30.7837C225.063 31.2651 225.063 32.1075 225.255 32.7333C225.615 33.8886 226.191 34.8513 226.911 35.7659C227.271 36.2232 227.943 36.3436 228.255 36.7046C228.807 37.3544 229.888 37.0175 230.248 37.884C230.248 37.884 230.32 37.884 230.32 37.8599C230.56 37.4507 230.896 37.7636 231.112 37.8117C231.928 38.0284 232.72 38.1487 233.536 37.8117C233.752 37.7395 233.824 37.8117 233.944 37.908C234.04 38.0043 234.184 38.0765 234.304 37.9562C234.928 37.3544 235.456 36.5843 236.488 36.6324C236.56 36.6324 236.68 36.488 236.68 36.3917C236.752 35.4049 237.977 35.5252 238.265 34.731C238.265 34.6828 238.817 34.731 238.769 34.5143C238.625 33.696 238.769 33.0462 239.369 32.4204C239.489 32.3 239.489 32.0353 239.777 32.0112C239.849 32.0112 239.993 32.0593 239.993 31.8668C240.017 31.2651 239.705 30.6393 239.945 30.0376C239.297 29.7969 240.089 29.5803 239.945 29.3155C239.729 29.2674 239.465 29.2433 239.249 29.1952C239.153 28.8823 239.561 28.5213 239.441 28.4491C238.961 28.1602 239.561 27.9195 239.417 27.727C239.201 27.4382 238.961 27.8233 238.577 27.6789C239.489 27.1975 238.673 26.7642 238.481 26.7161C238.097 26.6439 237.905 26.6439 238.073 26.2107C238.121 26.0903 238.073 25.9941 237.953 25.9459C237.232 25.5367 236.752 24.935 236.248 24.2852C235.936 23.876 235.552 23.2262 235.072 23.2984C234.376 23.3946 234.256 22.8892 233.848 22.5522V22.5763ZM222.567 35.3568C222.063 34.9716 221.943 34.6828 222.519 34.2977C222.783 34.1292 222.879 33.7201 222.447 33.5035C222.207 33.3831 222.039 33.1906 222.279 33.0221C222.879 32.5889 222.327 32.2038 222.135 32.0593C221.678 31.6983 221.606 31.3132 221.775 30.8078C221.823 30.6393 221.847 30.519 221.775 30.3505C221.438 29.6284 220.334 29.6043 220.31 28.6175C220.31 28.6175 220.214 28.5694 220.166 28.5694C219.662 28.6897 219.494 28.2324 219.158 28.0399C218.918 27.8955 218.774 27.1975 218.294 27.7751C218.198 27.8714 218.102 27.7751 218.102 27.6307C218.03 27.2215 217.838 27.366 217.646 27.5344C217.502 27.6548 217.334 27.7751 217.166 27.7751C216.902 27.6548 216.95 27.3178 216.71 27.1253C216.374 27.4141 215.726 27.1734 215.606 27.9677C215.15 27.39 214.718 27.0771 214.31 27.8473C214.262 27.9195 214.046 27.9195 213.926 27.9195C213.445 27.9436 213.061 28.1602 212.725 28.4491C212.581 28.5694 212.461 28.7138 212.269 28.786C211.093 29.2433 210.925 29.3877 209.989 30.6634C209.917 30.7596 209.797 30.7356 209.701 30.7596C209.077 30.9281 208.957 31.3132 209.389 31.9871C208.909 31.8187 208.621 31.8668 208.789 32.4444C208.885 32.7814 208.789 32.9499 208.381 32.974C208.261 32.974 207.877 32.9258 207.901 33.4313C207.901 34.0089 207.493 34.6106 208.189 35.0679C208.309 35.1642 208.261 35.3327 208.237 35.453C208.117 35.9585 208.381 36.2714 208.717 36.5602C208.861 36.6805 209.125 36.8249 209.125 36.9212C209.053 37.7155 209.581 38.2931 209.941 38.8708C210.133 39.1837 210.109 39.7613 210.565 39.7854C210.925 39.7854 211.021 39.9057 211.117 40.2186C211.333 40.8444 211.741 41.4461 212.341 41.6627C213.349 42.0238 214.406 42.2163 215.486 42.3367C215.99 42.3848 216.062 42.2163 216.182 41.8793C216.83 42.4089 216.878 42.4329 216.95 41.6868C216.998 41.1814 217.646 41.2295 217.67 40.7481C218.126 41.0851 218.606 40.5315 219.086 40.8685C218.99 40.4593 219.038 40.339 219.278 40.2186C219.35 40.1705 219.47 40.1705 219.47 40.1223C219.494 39.4725 220.286 39.3762 220.454 38.7986C220.502 38.606 220.742 38.3172 221.078 38.5338C221.174 38.3894 221.654 38.4616 221.462 38.2209C221.198 37.8358 221.486 37.7636 221.63 37.5711C221.871 37.186 222.159 36.8009 222.039 36.2714C221.943 35.8622 222.183 35.5974 222.591 35.4049L222.567 35.3568ZM225.975 21.8783C225.039 21.7339 224.511 21.0359 223.743 20.6749C222.831 20.2416 222.111 19.3752 221.51 18.5568C219.59 16.0056 218.102 13.1895 217.022 10.181C216.718 9.31449 216.19 8.92939 215.438 9.02567C215.318 9.41076 215.822 9.53111 215.774 9.89214C215.678 10.6142 215.798 11.3122 216.086 11.9861C216.518 12.9729 216.95 13.9597 217.43 14.8984C218.294 16.5832 219.254 18.2199 220.454 19.7121C221.294 20.7471 222.279 21.5895 223.239 22.48C223.527 22.7448 223.911 22.817 224.295 22.7929C224.943 22.7929 225.399 22.3838 225.951 21.8783H225.975ZM233.848 21.3007C233.896 20.9156 233.752 20.723 233.416 20.5545C232.504 20.1454 231.832 19.3992 231.376 18.5809C230.896 17.7385 230.296 17.0646 229.72 16.3185C229.239 15.7167 228.735 15.1391 228.399 14.4411C227.727 13.0933 227.151 11.6732 226.575 10.2772C226.407 9.89214 226.215 9.69959 225.831 9.89214C225.543 10.0365 225.087 10.205 225.471 10.6864C225.615 10.8549 225.567 11.0715 225.471 11.1196C224.919 11.3603 225.303 11.6973 225.279 12.0342C225.279 12.4915 225.567 12.7082 225.759 12.997C225.807 13.0933 226.119 13.0451 226.071 13.1895C225.879 13.8394 226.455 14.1041 226.719 14.5133C227.847 16.4629 229.263 18.1958 230.608 19.9769C231.184 20.7471 231.76 21.5654 232.768 21.9024C233.392 22.119 233.872 21.8542 233.872 21.2525L233.848 21.3007Z" fill="#333333"/>
</g>
<defs>
<clipPath id="clip0_110_44516">
<rect width="145" height="105" fill="white" transform="translate(0 198)"/>
</clipPath>
<clipPath id="clip1_110_44516">
<rect width="127" height="303" fill="white" transform="translate(170)"/>
</clipPath>
</defs>
</svg>
